<?xml version="1.0" standalone="no"?>
<!DOCTYPE svg PUBLIC "-//W3C//DTD SVG 1.1//EN" "http://www.w3.org/Graphics/SVG/1.1/DTD/svg11.dtd" >
<svg xmlns="http://www.w3.org/2000/svg">
<metadata>
This is a custom SVG webfont generated by Font Squirrel.
Copyright   : Copyright 19901998 Bitstream Inc  All rights reserved
</metadata>
<defs>
<font id="Caslon224BkBTBold" horiz-adv-x="1208" >
<font-face units-per-em="2048" ascent="1556" descent="-492" />
<missing-glyph horiz-adv-x="604" />
<glyph unicode=" "  horiz-adv-x="604" />
<glyph unicode="&#x09;" horiz-adv-x="604" />
<glyph unicode="&#xa0;" horiz-adv-x="604" />
<glyph unicode="!" horiz-adv-x="698" d="M188 1165q0 106 46 174t116 68q71 0 115.5 -68t44.5 -178q0 -137 -67.5 -364.5t-67.5 -315.5v-18q0 -33 -5.5 -43t-19.5 -10q-13 0 -18.5 10t-5.5 35q0 112 -69 343.5t-69 366.5zM190 131q0 65 47 111.5t113 46.5t112 -46t46 -112t-46.5 -113t-111.5 -47q-64 0 -112 48 t-48 112z" />
<glyph unicode="&#x22;" horiz-adv-x="694" d="M84 1354q0 52 24.5 80t69.5 28q47 0 71.5 -27.5t24.5 -80.5q0 -16 -0.5 -24.5t-1.5 -15.5l-73 -458h-39l-74 459q-1 7 -1.5 15.5t-0.5 23.5zM420 1354q0 51 25.5 79.5t70.5 28.5t70.5 -28t25.5 -78q0 -13 -3 -36q-1 -4 -1 -5l-73 -459h-39l-74 458q-1 8 -1.5 16.5 t-0.5 23.5z" />
<glyph unicode="#" horiz-adv-x="1575" d="M70 428l59 168h301l92 262h-319l61 166h318l155 436h183l-156 -436h268l156 436h182l-156 -436h291l-59 -166h-291l-92 -262h307l-59 -168h-307l-154 -434h-184l155 434h-268l-154 -434h-184l156 434h-301zM608 594h275l94 264h-275z" />
<glyph unicode="$" d="M188 57v21l13 500q0 17 4 24.5t12 7.5q14 0 46 -150.5t114 -277.5l151 422q-158 81 -230.5 178t-72.5 228q0 155 105.5 263.5t259.5 108.5q51 0 101.5 -14.5t99.5 -44.5l94 272h61l-102 -286q2 -1 4 -1q15 -3 22 -3q44 0 70 40.5t31 40.5q8 0 12 -6t6 -28l21 -422v-12 q0 -16 -4.5 -22.5t-14.5 -6.5q-8 0 -47 119.5t-129 220.5l-135 -379q195 -79 284 -182t89 -248q0 -177 -117 -298.5t-289 -121.5q-71 0 -132.5 17.5t-119.5 54.5l-114 -318h-62l125 338q-14 4 -26.5 6t-20.5 2q-37 0 -57.5 -35.5t-32.5 -35.5q-10 0 -14 6.5t-5 21.5z M397 1151q0 -92 54.5 -157t177.5 -120l141 400q-43 34 -88 49.5t-98 15.5q-83 0 -135 -52t-52 -136zM420 135q52 -47 108 -71.5t113 -24.5q93 0 158 69t65 166q0 99 -63.5 168.5t-220.5 139.5z" />
<glyph unicode="%" horiz-adv-x="1511" d="M74 1026q0 160 95.5 270.5t229.5 110.5q135 0 230.5 -110t95.5 -271t-96 -271t-234 -110q-129 0 -225 111.5t-96 269.5zM213 0l991 1380h94l-993 -1380h-92zM279 1032q0 -182 29 -269t91 -87q64 0 93.5 84.5t29.5 265.5t-29.5 265.5t-93.5 84.5q-61 0 -90.5 -85 t-29.5 -259zM784 362q0 155 96.5 265t229.5 110q134 0 230 -110.5t96 -272.5q0 -161 -96 -271t-234 -110q-132 0 -227 112.5t-95 276.5zM989 362q0 -182 29.5 -269t91.5 -87q63 0 92 83.5t29 264.5q0 182 -29 266.5t-92 84.5q-61 0 -91 -84.5t-30 -258.5z" />
<glyph unicode="&#x26;" horiz-adv-x="1655" d="M72 379q0 133 87.5 237t227.5 138q-67 71 -99 141.5t-32 144.5q0 150 111 258.5t268 108.5q135 0 226 -83.5t91 -207.5q0 -93 -57 -167.5t-166 -123.5q105 -65 200.5 -166.5t186.5 -244.5q36 56 54 111.5t18 111.5q0 60 -21 104t-57 60q-16 7 -51 13.5t-35 21.5 q0 10 5.5 16t14.5 6h463q11 0 18 -5.5t7 -12.5q0 -16 -63.5 -33.5t-108.5 -65.5q-59 -60 -126.5 -190t-94.5 -172q72 -139 143.5 -213t132.5 -74q31 0 59.5 19.5t43.5 50.5q6 13 15 37q14 43 34 43q7 0 11.5 -8t4.5 -21q0 -89 -87.5 -164.5t-211.5 -75.5q-89 0 -166.5 42.5 t-150.5 131.5q-88 -87 -191.5 -131.5t-220.5 -44.5q-213 0 -348 116t-135 292zM326 500q0 -188 104 -312.5t258 -124.5q71 0 135 30t115 87q-139 224 -328 382l-190 159q-47 -34 -70.5 -90.5t-23.5 -130.5zM463 1176q0 -81 60 -166t173 -162q67 34 104.5 106.5t37.5 167.5 q0 112 -53 179t-140 67q-78 0 -130 -55t-52 -137z" />
<glyph unicode="'" horiz-adv-x="358" d="M84 1354q0 52 24.5 80t69.5 28q47 0 71.5 -27.5t24.5 -80.5q0 -16 -0.5 -24.5t-1.5 -15.5l-73 -458h-39l-74 459q-1 7 -1.5 15.5t-0.5 23.5z" />
<glyph unicode="(" horiz-adv-x="879" d="M217 500q0 200 56 370.5t165 305.5q92 111 210.5 186.5t182.5 75.5q12 0 19.5 -6t7.5 -15q0 -19 -43.5 -33.5t-73.5 -31.5q-133 -80 -205.5 -301t-72.5 -551q0 -311 66 -527.5t186 -304.5q38 -27 90.5 -47t52.5 -39q0 -8 -7.5 -13t-19.5 -5q-55 0 -155 57t-187 146 q-134 138 -203 324t-69 409z" />
<glyph unicode=")" horiz-adv-x="879" d="M23 -416q0 17 43.5 33.5t70.5 32.5q134 79 206.5 299.5t72.5 550.5q0 311 -66 528.5t-186 304.5q-37 27 -89 47t-52 37q0 10 6 15.5t18 5.5q53 0 155 -58t187 -145q133 -138 203 -325.5t70 -409.5q0 -221 -70 -408.5t-203 -324.5q-84 -89 -185.5 -146t-156.5 -57 q-11 0 -17.5 5.5t-6.5 14.5z" />
<glyph unicode="*" horiz-adv-x="1024" d="M162 1096q0 37 27.5 59.5t74.5 22.5q41 0 102 -37t92 -45q-31 -9 -92.5 -44.5t-103.5 -35.5q-45 0 -72.5 22t-27.5 58zM301 864q0 72 108 136q52 32 76 53q-4 -16 -6 -31.5t-2 -28.5q0 -11 1 -30.5t1 -28.5q0 -63 -30 -105.5t-72 -42.5q-33 0 -54.5 22.5t-21.5 55.5z M301 1333q0 32 21.5 54t52.5 22q46 0 75 -42t29 -112q0 -10 -1 -30t-1 -29q0 -13 2 -26.5t6 -26.5q-24 21 -77 53q-107 65 -107 137zM537 1143q4 15 6 30.5t2 43.5v43q0 66 29.5 107.5t74.5 41.5q32 0 53 -21.5t21 -54.5q0 -69 -109 -136q-54 -33 -77 -54zM539 1051 q24 -22 77 -54q107 -63 107 -135q0 -32 -21.5 -55t-52.5 -23q-41 0 -72.5 40.5t-31.5 93.5q0 16 1 42t1 33q0 14 -6 46q-2 8 -2 12zM566 1096q32 9 92 45.5t102 36.5q46 0 74 -23t28 -59q0 -35 -28 -57.5t-72 -22.5q-42 0 -104.5 35.5t-91.5 44.5z" />
<glyph unicode="+" horiz-adv-x="1706" d="M254 528v166h514v527h170v-527h514v-166h-514v-528h-170v528h-514z" />
<glyph unicode="," horiz-adv-x="604" d="M133 143q0 63 48 108.5t118 45.5q80 0 136.5 -70.5t56.5 -173.5q0 -73 -31.5 -152t-91.5 -159q-40 -53 -84.5 -89t-63.5 -36q-7 0 -13.5 5t-6.5 11q0 9 26 29q7 6 12 10q65 56 104.5 120t39.5 110q0 62 -83 88q-17 5 -25 8q-83 29 -112.5 61t-29.5 84z" />
<glyph unicode="-" horiz-adv-x="596" d="M94 358v203h406v-203h-406z" />
<glyph unicode="." horiz-adv-x="604" d="M143 131q0 65 46.5 111.5t111.5 46.5q66 0 113 -46t47 -112t-47.5 -113t-112.5 -47q-63 0 -110.5 48.5t-47.5 111.5z" />
<glyph unicode="/" horiz-adv-x="1012" d="M0 -190l868 1597h95l-867 -1597h-96z" />
<glyph unicode="0" d="M74 690q0 304 155.5 510.5t374.5 206.5q220 0 375.5 -206t155.5 -511q0 -161 -45.5 -298.5t-133.5 -239.5q-73 -87 -164.5 -134t-187.5 -47q-65 0 -130 23t-126 67q-130 96 -202 260.5t-72 368.5zM367 702q0 -353 57.5 -519.5t179.5 -166.5t181 165t59 509 q0 356 -56.5 515t-181.5 159q-121 0 -180 -163t-59 -499z" />
<glyph unicode="1" d="M197 1223q0 21 83 31q70 8 119 18q169 33 304 115q32 20 40 20q11 0 17 -10t6 -27v-1171q0 -86 44.5 -121t170.5 -35q20 0 29.5 -6t9.5 -19q0 -10 -9 -15t-28 -5h-727q-33 0 -43 5.5t-10 19.5q0 11 12.5 16.5t38.5 5.5q148 0 190.5 36t42.5 124v917q0 55 -13.5 67.5 t-67.5 12.5h-175q-17 0 -25.5 5t-8.5 16z" />
<glyph unicode="2" d="M94 0q8 104 77.5 218.5t180.5 205.5q44 35 126 98q284 212 284 396q0 133 -82.5 220t-208.5 87q-83 0 -155.5 -39.5t-118.5 -110.5q-14 -21 -30 -55q-20 -43 -36 -43q-9 0 -12.5 5.5t-3.5 18.5q0 38 21.5 93t58.5 106q70 100 177 153.5t236 53.5q196 0 310 -107t114 -290 q0 -150 -76 -253t-264 -200q-20 -11 -61 -31q-274 -137 -359 -276h510q73 0 110 10t62 35q14 13 33 42.5t33 29.5q7 0 12.5 -6t5.5 -15q0 -7 -40.5 -119t-65.5 -227h-838z" />
<glyph unicode="3" d="M55 238q0 65 35 102t96 37q58 0 101.5 -43t64.5 -121q29 -106 79 -149.5t138 -43.5q121 0 188.5 72t67.5 199q0 126 -53.5 224t-153.5 151q-54 28 -120 35.5t-66 19.5q0 16 38.5 21.5t58.5 15.5q65 32 106 98t41 141q0 102 -68.5 169t-171.5 67q-67 0 -122 -29.5 t-89 -83.5q-1 -2 -5 -8q-14 -25 -27 -25q-8 0 -14.5 7t-6.5 16q0 26 35 84.5t84 101.5q61 54 137.5 82.5t159.5 28.5q163 0 263.5 -94.5t100.5 -249.5q0 -73 -25.5 -129.5t-78.5 -102.5q101 -55 159 -149.5t58 -202.5q0 -233 -157 -370.5t-427 -137.5q-184 0 -305 78 t-121 189z" />
<glyph unicode="4" d="M76 487l667 920h154v-883h221l-49 -121h-172v-161q0 -86 14.5 -121.5t48.5 -52.5q22 -11 63.5 -17.5t41.5 -27.5q0 -13 -6.5 -18t-28.5 -5h-532q-21 0 -28 5t-7 18q0 22 42 28.5t62 16.5q34 16 48 50.5t14 123.5v161h-510zM182 524h449l14 633z" />
<glyph unicode="5" d="M131 221q0 56 38 93.5t95 37.5q69 0 113.5 -48t60.5 -140q15 -80 46 -112t89 -32q110 0 182 77.5t72 195.5q0 156 -131 258t-331 102q-35 0 -72.5 -3t-89.5 -11q46 205 76 395t40 346h592q62 0 89 32t30 32q9 0 14 -5.5t5 -15.5q0 -4 -1 -9t-4 -11l-79 -277h-625 q-9 -78 -18 -133.5t-21 -105.5q56 7 95 10.5t71 3.5q259 0 425.5 -133t166.5 -338q0 -188 -148 -323.5t-360 -135.5q-177 0 -298.5 74.5t-121.5 175.5z" />
<glyph unicode="6" d="M111 561q0 187 81 344.5t240 278.5q130 98 281 162.5t221 64.5q13 0 24 -6t11 -12q0 -11 -76 -51t-129 -78q-136 -99 -213.5 -217.5t-118.5 -288.5q66 43 135 64.5t142 21.5q188 0 307 -114t119 -296q0 -194 -146.5 -327.5t-357.5 -133.5q-219 0 -369.5 168t-150.5 420z M393 463q0 -211 63.5 -329t176.5 -118q107 0 165 96.5t58 274.5q0 186 -62.5 289.5t-172.5 103.5q-53 0 -104.5 -22.5t-100.5 -67.5q-12 -60 -17.5 -115.5t-5.5 -111.5z" />
<glyph unicode="7" d="M147 1036q1 7 1.5 11t2.5 9l111 324h793l53 -96q-207 -307 -308.5 -616.5t-101.5 -634.5q0 -1 1 -7q1 -18 1 -36q-46 4 -87 6t-70 2q-41 0 -91 -5.5t-114 -17.5q23 289 172.5 570.5t433.5 570.5h-608q-96 0 -133 -50t-39 -50q-8 0 -12.5 5t-4.5 15z" />
<glyph unicode="8" d="M94 367q0 109 59.5 194.5t174.5 143.5q-85 60 -128.5 139t-43.5 172q0 167 133.5 279t335.5 112q173 0 288 -99t115 -243q0 -87 -45.5 -156t-136.5 -123q130 -59 199 -156.5t69 -221.5q0 -186 -153.5 -311.5t-378.5 -125.5q-208 0 -348 114t-140 282zM233 375 q0 -160 96.5 -260.5t250.5 -100.5q122 0 204 73t82 181q0 84 -58.5 162t-154.5 121l-286 131q-66 -61 -100 -139t-34 -168zM401 1137q0 -82 59.5 -149.5t172.5 -115.5l164 -67q58 49 86 113t28 147q0 132 -72 215.5t-186 83.5q-108 0 -180 -64.5t-72 -162.5z" />
<glyph unicode="9" d="M78 946q0 194 146 327.5t358 133.5q219 0 369.5 -168t150.5 -420q0 -186 -81.5 -344t-240.5 -278q-129 -98 -279.5 -162t-221.5 -64q-14 0 -24.5 5.5t-10.5 11.5q0 11 75.5 50.5t129.5 78.5q134 97 211.5 215t119.5 291q-65 -44 -133 -65t-141 -21q-189 0 -308.5 114 t-119.5 295zM356 1004q0 -195 61.5 -299.5t174.5 -104.5q53 0 105.5 23t99.5 68q11 55 16.5 114.5t5.5 126.5q0 201 -64.5 316.5t-174.5 115.5q-106 0 -165 -95t-59 -265z" />
<glyph unicode=":" horiz-adv-x="655" d="M168 131q0 64 47 111t113 47q67 0 113 -45.5t46 -112.5q0 -66 -47.5 -113t-111.5 -47t-112 48t-48 112zM168 723q0 65 47 112.5t113 47.5t112.5 -46.5t46.5 -113.5q0 -66 -47.5 -113t-111.5 -47t-112 48.5t-48 111.5z" />
<glyph unicode=";" horiz-adv-x="655" d="M168 143q0 63 47 108.5t117 45.5q80 0 137 -71t57 -173q0 -73 -31 -152t-92 -159q-39 -53 -83.5 -89t-63.5 -36q-8 0 -14 5t-6 11q0 9 29 33q5 4 7 6q65 56 104.5 120t39.5 110q0 62 -83 88q-17 5 -26 8q-81 28 -110 60.5t-29 84.5zM168 723q0 65 47 112.5t113 47.5 t112.5 -46.5t46.5 -113.5q0 -65 -47.5 -112.5t-111.5 -47.5t-112 48t-48 112z" />
<glyph unicode="&#x3c;" horiz-adv-x="1706" d="M264 530v160l1178 486v-185l-934 -381l934 -381v-182z" />
<glyph unicode="=" horiz-adv-x="1706" d="M254 322v165h1198v-165h-1198zM254 733v168h1198v-168h-1198z" />
<glyph unicode="&#x3e;" horiz-adv-x="1706" d="M264 47v182l934 381l-934 381v185l1178 -486v-160z" />
<glyph unicode="?" horiz-adv-x="967" d="M68 1145q0 111 110.5 186.5t282.5 75.5q194 0 317 -122t123 -316q0 -180 -108.5 -301t-266.5 -121q-18 0 -39.5 2t-44.5 6l7 -94v-27q0 -13 -8.5 -19.5t-24.5 -6.5q-33 0 -68 136.5t-96 264.5l98 63q48 -38 98 -57.5t101 -19.5q116 0 192 75.5t76 190.5 q0 119 -77.5 200.5t-186.5 81.5q-56 0 -97 -23t-67 -69q-17 -30 -31 -72.5t-16 -47.5q-24 -59 -63.5 -89t-92.5 -30t-85.5 37t-32.5 96zM276 131q0 65 46.5 111.5t111.5 46.5q67 0 113.5 -46t46.5 -112t-47.5 -113t-112.5 -47q-62 0 -110 48.5t-48 111.5z" />
<glyph unicode="@" horiz-adv-x="2019" d="M139 537q0 203 86 381t250 313q135 111 297.5 168t345.5 57q348 0 557 -188.5t209 -501.5q0 -159 -59 -297.5t-168 -237.5q-62 -54 -129 -82t-133 -28q-98 0 -152.5 52.5t-60.5 152.5q-64 -105 -137.5 -154t-165.5 -49q-134 0 -212.5 92t-78.5 248q0 112 49 219t141 195 q68 65 147.5 99t161.5 34q90 0 145.5 -47.5t72.5 -139.5l51 170h172l-172 -616l-2 -6q-15 -59 -15 -90q0 -49 22 -76t60 -27q34 0 84 22t92 56q110 88 169 222t59 296q0 279 -191 450t-504 171q-173 0 -328.5 -65t-273.5 -185q-122 -125 -183.5 -286t-61.5 -357 q0 -172 59.5 -306.5t179.5 -234.5q106 -88 247 -135t302 -47q166 0 321 51.5t304 157.5l37 -47q-148 -111 -315 -167.5t-347 -56.5q-188 0 -347 46.5t-275 134.5q-151 113 -230.5 277t-79.5 362zM772 367q0 -83 36.5 -133t94.5 -50q62 0 115.5 41.5t107.5 132.5 q56 96 89.5 210t33.5 204q0 83 -37.5 132.5t-99.5 49.5q-64 0 -117 -45t-106 -147q-57 -107 -87 -209.5t-30 -185.5z" />
<glyph unicode="A" horiz-adv-x="1333" d="M-109 18q0 17 44 34q18 7 29 12q90 43 157 130.5t129 247.5l264 678q-9 27 -39.5 45.5t-30.5 30.5q0 5 51 46t91 93q19 27 40 64q20 37 38 37q11 0 20.5 -11.5t28.5 -54.5l473 -1177q22 -56 49 -88t62 -44q7 -2 25 -7q50 -13 50 -34q0 -10 -8.5 -15t-26.5 -5h-544 q-20 0 -28.5 5t-8.5 15q0 19 73.5 35t73.5 70q0 14 -4.5 32.5t-13.5 40.5l-115 302h-446l-50 -138q-11 -31 -16.5 -62t-5.5 -62q0 -61 26.5 -108.5t72.5 -66.5q12 -5 37 -11q44 -12 44 -29q0 -12 -7.5 -17.5t-25.5 -5.5h-475q-18 0 -25.5 4t-7.5 14zM340 545h412l-207 536z " />
<glyph unicode="B" horiz-adv-x="1415" d="M66 25q0 19 39 27t56 15q37 19 51.5 53.5t14.5 123.5v942q0 48 -20.5 81.5t-59.5 49.5q-13 5 -38 9q-43 7 -43 28q0 14 9.5 20t33.5 6h636q230 0 358 -85.5t128 -237.5q0 -147 -125 -228.5t-363 -89.5v-8h9q267 0 410 -89t143 -255q0 -193 -140 -290t-417 -97h-639 q-27 0 -35 5.5t-8 19.5zM512 219q0 -114 37.5 -144t140.5 -30q166 0 232.5 76t66.5 270q0 172 -77.5 245t-268.5 73h-131v-490zM512 754q36 -3 52.5 -3.5t31.5 -0.5q178 0 257 71t79 232q0 148 -62 215t-198 67h-160v-581z" />
<glyph unicode="C" horiz-adv-x="1452" d="M90 682q0 143 51 274t146 230q103 108 231.5 164.5t269.5 56.5q129 0 270.5 -54.5t155.5 -54.5q46 0 59 51.5t30 51.5q16 0 23 -38.5t7 -158.5q0 -34 -1 -146.5t-1 -191.5q0 -24 -5 -33.5t-17 -9.5q-17 0 -37.5 84t-57.5 156q-71 139 -179.5 219t-225.5 80 q-196 0 -296.5 -179.5t-100.5 -529.5q0 -305 98 -470t281 -165q129 0 245 76t187 207q38 70 57.5 157t38.5 87q10 0 15 -8.5t4 -28.5q0 -108 -2.5 -244t-2.5 -164v-59q0 -36 -4.5 -46.5t-17.5 -10.5q-12 0 -33 46t-55 46q-16 0 -160 -52.5t-277 -52.5q-300 0 -498 202 t-198 509z" />
<glyph unicode="D" horiz-adv-x="1503" d="M66 25q0 19 39 27t56 15q37 19 51.5 53.5t14.5 123.5v942q0 48 -20.5 81.5t-59.5 49.5q-13 5 -38 9q-43 7 -43 28q0 14 9.5 20t33.5 6h483q161 0 258 -15.5t184 -51.5q178 -75 281.5 -248t103.5 -395q0 -179 -72.5 -326.5t-203.5 -237.5q-83 -55 -193 -80.5t-278 -25.5 h-563q-27 0 -35 5.5t-8 19.5zM512 340q0 -181 44 -238t155 -57q194 0 292.5 145.5t98.5 432.5q0 354 -114.5 530t-344.5 176q-26 0 -70.5 -2.5t-60.5 -3.5v-983z" />
<glyph unicode="E" horiz-adv-x="1335" d="M66 25q0 19 39 27t56 15q37 19 51.5 53.5t14.5 123.5v942q0 48 -20.5 81.5t-59.5 49.5q-13 5 -38 9q-43 7 -43 28q0 14 9.5 20t33.5 6h981l139 -442q0 -2 1 -4l1 -2q0 -9 -6 -16t-15 -7q-14 0 -55 83t-96 147q-86 102 -203 149t-285 47h-59v-581h31q92 0 166.5 43.5 t107.5 117.5q17 39 26 96.5t25 57.5q11 0 17 -6.5t5 -18.5v-649q0 -13 -6 -21.5t-16 -8.5q-19 0 -27.5 58.5t-25.5 98.5q-37 88 -111 137.5t-167 49.5h-25v-482q0 -114 34 -148t124 -34q157 0 288.5 80t212.5 225q28 49 51 121t42 72q9 0 14.5 -6t5.5 -15v-6l-113 -516 h-1062q-27 0 -35 5.5t-8 19.5z" />
<glyph unicode="F" horiz-adv-x="1202" d="M66 25q0 19 39 27t56 15q37 19 51.5 53.5t14.5 123.5v942q0 48 -20.5 81.5t-59.5 49.5q-13 5 -38 9q-43 7 -43 28q0 14 9.5 20t33.5 6h962l139 -440v-4v-8q0 -10 -5.5 -17.5t-14.5 -7.5q-16 0 -45 61.5t-55 104.5q-83 136 -214 201t-323 65h-41v-592h25q91 0 166 44.5 t106 117.5q17 39 26 96.5t27 57.5q9 0 15 -7t6 -18v-651q0 -13 -5.5 -21t-15.5 -8q-20 1 -29 59t-26 99q-36 86 -110.5 136t-166.5 50h-18v-456q0 -86 12 -119t41 -51q22 -14 77.5 -20t55.5 -29q0 -12 -8 -17.5t-26 -5.5h-555q-27 0 -35 5.5t-8 19.5z" />
<glyph unicode="G" horiz-adv-x="1561" d="M82 672q0 317 207.5 526t521.5 209q127 0 267.5 -52t150.5 -52q41 0 55 48t29 48q13 0 18.5 -9t5.5 -30q4 -183 6.5 -333.5t2.5 -166.5q0 -22 -5.5 -32.5t-17.5 -10.5q-17 0 -38 81.5t-54 150.5q-75 153 -182 233t-238 80q-199 0 -304.5 -180.5t-105.5 -522.5 q0 -308 106.5 -474.5t301.5 -166.5q158 0 234.5 87t76.5 266q0 93 -15.5 138t-53.5 66q-25 14 -69 21.5t-44 26.5q0 10 8 16t21 6h557q15 0 23.5 -6t8.5 -16q0 -22 -39 -27q-26 -3 -40 -8q-35 -12 -51.5 -38t-16.5 -69l-4 -481h-90l-64 109q-104 -70 -215.5 -104t-234.5 -34 q-308 0 -513.5 200t-205.5 501z" />
<glyph unicode="H" horiz-adv-x="1542" d="M66 25q0 19 39 27t56 15q37 19 51.5 53.5t14.5 123.5v942q0 48 -20.5 81.5t-59.5 49.5q-13 5 -38 9q-43 7 -43 28q0 14 9.5 20t33.5 6h522q23 0 32 -6t9 -20q0 -19 -38 -26t-56 -17q-37 -20 -51.5 -54t-14.5 -122v-381h518v432q0 49 -19.5 82t-58.5 49q-13 5 -39 9 q-44 7 -45 28q0 14 10.5 20t34.5 6h521q23 0 33 -6t10 -20q0 -19 -39 -26t-58 -17q-36 -20 -50.5 -54t-14.5 -122v-891q0 -88 14.5 -122.5t50.5 -53.5q18 -9 57.5 -16.5t39.5 -26.5q0 -14 -8 -19.5t-35 -5.5h-521q-27 0 -36 5.5t-9 19.5q0 19 40.5 27t58.5 16q35 17 49 50.5 t14 125.5v465h-518v-465q0 -88 15 -122.5t50 -53.5q18 -9 56.5 -16.5t38.5 -26.5q0 -15 -7.5 -20t-33.5 -5h-522q-27 0 -35 5.5t-8 19.5z" />
<glyph unicode="I" horiz-adv-x="772" d="M78 25q0 19 38.5 27t56.5 16q35 18 50 52.5t15 123.5v942q0 49 -20 82t-58 49q-14 5 -39 9q-43 8 -43 28q0 14 9.5 20t33.5 6h532q23 0 32 -6t9 -20q0 -19 -38.5 -26t-57.5 -17q-35 -19 -49 -52t-14 -124v-891q0 -91 14 -124.5t50 -52.5q16 -8 55.5 -15.5t39.5 -26.5 q0 -15 -7.5 -20t-33.5 -5h-532q-27 0 -35 5.5t-8 19.5z" />
<glyph unicode="J" horiz-adv-x="1053" d="M39 207q0 64 42.5 107.5t102.5 43.5q53 0 89 -36t36 -89q0 -24 -14 -63t-14 -57q0 -40 30.5 -66.5t79.5 -26.5q72 0 99.5 44t27.5 223v899q0 49 -19.5 82t-58.5 49q-13 5 -38 9q-43 7 -44 28q0 14 10 20t33 6h533q23 0 32 -6t9 -20q0 -19 -38 -26t-56 -17 q-37 -20 -51.5 -54t-14.5 -122v-684q0 -230 -113 -355t-319 -125q-151 0 -247.5 67.5t-96.5 168.5z" />
<glyph unicode="K" horiz-adv-x="1415" d="M66 25q0 19 39 27t56 15q37 19 51.5 53.5t14.5 123.5v942q0 48 -20.5 81.5t-59.5 49.5q-13 5 -38 9q-43 7 -43 28q0 14 9.5 20t33.5 6h522q23 0 32 -6t9 -20q0 -19 -38 -26t-56 -17q-37 -20 -51.5 -54t-14.5 -122v-480l365 426q34 40 51.5 78t17.5 70q0 66 -60.5 91 t-60.5 38q1 12 9 17t28 5h441q19 0 27.5 -5t8.5 -17q0 -23 -48 -30q-26 -4 -40 -7q-60 -16 -125 -60.5t-125 -111.5l-163 -188l411 -760q36 -68 65 -99.5t65 -42.5q16 -5 45 -10q40 -6 40 -26q0 -13 -8 -18t-29 -5h-391l-399 743l-125 -147v-352q0 -88 15 -122.5t50 -53.5 q18 -9 56.5 -16.5t38.5 -26.5q0 -15 -7.5 -20t-33.5 -5h-522q-27 0 -35 5.5t-8 19.5z" />
<glyph unicode="L" horiz-adv-x="1266" d="M78 25q0 19 38.5 27t56.5 16q35 18 50 52.5t15 123.5v942q0 49 -20 82t-58 49q-14 5 -39 9q-43 8 -43 28q0 14 9.5 20t33.5 6h532q23 0 32 -6t9 -20q0 -19 -38.5 -26t-57.5 -17q-35 -19 -49 -52t-14 -124v-908q0 -111 32.5 -146.5t114.5 -35.5q140 0 273.5 96.5 t207.5 255.5q19 40 38 93q19 51 34 51q9 0 14.5 -6.5t5.5 -14.5v-4l-102 -516h-1032q-27 0 -35 5.5t-8 19.5z" />
<glyph unicode="M" horiz-adv-x="1737" d="M-8 23q0 20 39 28q36 8 59 19q73 33 105 120.5t32 262.5v784q-36 74 -113 89.5t-77 31.5q0 12 8 17t29 5h411l392 -1013l385 1013h366q24 0 33.5 -6t9.5 -20q0 -19 -38.5 -26t-57.5 -17q-36 -20 -51 -54t-15 -122v-891q0 -88 15 -122.5t50 -53.5q18 -9 57.5 -16.5 t39.5 -26.5q0 -14 -8 -19.5t-35 -5.5h-510q-27 0 -35 5.5t-8 19.5q0 19 39.5 27t57.5 16q35 18 50 52.5t15 123.5v944l-457 -1190q0 -1 -1 -3q-10 -24 -21 -24q-16 0 -24 22q0 2 -1 3l-463 1192l2 -735q0 -177 27 -257.5t92 -117.5q29 -16 73 -26t44 -29q0 -13 -7.5 -18 t-27.5 -5h-446q-20 0 -27.5 5t-7.5 18z" />
<glyph unicode="N" horiz-adv-x="1425" d="M-25 1358q1 12 9.5 17t27.5 5h416l725 -954l2 535q0 152 -33 233t-108 117q-22 10 -62.5 20t-40.5 29q0 10 8 15t23 5h453q14 0 22 -5t8 -15q0 -17 -38.5 -28t-56.5 -21q-69 -35 -99.5 -117.5t-30.5 -235.5l-4 -962q0 -11 -4 -18t-10 -7t-12 3t-9 8l-889 1151l2 -680 q0 -182 28.5 -263.5t96.5 -117.5q22 -12 67.5 -21.5t45.5 -30.5q0 -10 -7.5 -15t-25.5 -5h-461q-17 0 -24.5 5t-7.5 15q0 20 43 30t63 20q70 37 99.5 119.5t31.5 262.5l4 717l-73 86q-46 53 -112.5 69.5t-66.5 33.5z" />
<glyph unicode="O" horiz-adv-x="1593" d="M76 690q0 312 203.5 514.5t517.5 202.5q312 0 515.5 -202.5t203.5 -514.5q0 -311 -203.5 -515t-515.5 -204q-129 0 -241 36.5t-206 109.5q-132 101 -203 249.5t-71 323.5zM397 690q0 -328 103 -501t297 -173q193 0 295 173t102 501t-102.5 501t-294.5 173 q-194 0 -297 -173t-103 -501z" />
<glyph unicode="P" horiz-adv-x="1260" d="M66 25q0 19 39 27t56 15q37 19 51.5 53.5t14.5 123.5v942q0 48 -20.5 81.5t-59.5 49.5q-13 5 -38 9q-43 7 -43 28q0 14 9.5 20t33.5 6h553q251 0 393.5 -102t142.5 -281q0 -183 -152.5 -284t-433.5 -101q-38 0 -59 0.5t-41 1.5v-372q0 -92 14.5 -126.5t48.5 -49.5 q24 -11 75.5 -15t51.5 -26q0 -14 -8 -19.5t-28 -5.5h-557q-27 0 -35 5.5t-8 19.5zM512 660q14 -2 29.5 -2.5t44.5 -0.5q162 0 231.5 78.5t69.5 263.5q0 183 -67 259.5t-234 76.5h-74v-675z" />
<glyph unicode="Q" horiz-adv-x="1593" d="M80 682q0 175 79.5 329.5t223.5 260.5q93 67 198 101t218 34q109 0 212 -31t195 -92q150 -98 230 -247t80 -332q0 -217 -115 -399.5t-305 -270.5q-66 -30 -138.5 -45t-152.5 -15h-29q100 -31 290 -103.5t261 -72.5q137 0 219 116q23 32 33 32q6 0 10 -6t4 -17 q0 -20 -25.5 -62.5t-64.5 -82.5q-68 -68 -163.5 -103.5t-211.5 -35.5q-93 0 -187 28.5t-245 110.5q-137 75 -198.5 98t-108.5 23q-101 0 -155 -96q-16 -27 -25 -27q-10 0 -15.5 6.5t-5.5 17.5q0 81 100 153.5t236 74.5q-207 82 -325.5 256t-118.5 397zM397 690 q0 -315 107 -494.5t293 -179.5q187 0 292 177.5t105 496.5q0 316 -106 495t-291 179q-188 0 -294 -178t-106 -496z" />
<glyph unicode="R" horiz-adv-x="1407" d="M66 25q0 19 39 27t56 15q37 19 51.5 53.5t14.5 123.5v942q0 48 -20.5 81.5t-59.5 49.5q-13 5 -38 9q-43 7 -43 28q0 14 9.5 20t33.5 6h602q233 0 366 -92.5t133 -251.5q0 -154 -135.5 -246t-369.5 -92h-27v-8q197 -6 292 -62.5t171 -211.5l121 -244q42 -87 123 -113.5 t81 -38.5q0 -10 -8.5 -15t-25.5 -5h-396l-243 510q-47 98 -95.5 130t-142.5 32h-43v-428q0 -88 15 -122.5t50 -53.5q18 -9 56.5 -16.5t38.5 -26.5q0 -15 -7.5 -20t-33.5 -5h-522q-27 0 -35 5.5t-8 19.5zM512 717h100q145 0 216 75.5t71 229.5q0 156 -66 234.5t-196 78.5 h-125v-618z" />
<glyph unicode="S" horiz-adv-x="1229" d="M113 315v226q0 22 5 33.5t15 11.5q20 0 38.5 -80t45.5 -144q73 -172 172.5 -259t224.5 -87q117 0 198 75.5t81 182.5q0 116 -72 188t-327 163q-184 64 -276.5 162.5t-92.5 230.5q0 163 134.5 277t332.5 114q101 0 217 -39t125 -39q28 0 41 33t24 33q21 -1 27 -82 q1 -20 2 -32q5 -60 14 -158q15 -152 15 -195q0 -20 -4.5 -28.5t-14.5 -8.5q-16 0 -36 59q-21 60 -39 101q-70 151 -165.5 231t-207.5 80q-102 0 -169 -59.5t-67 -147.5q0 -82 66.5 -142t236.5 -124q315 -116 400.5 -210t85.5 -243q0 -196 -152.5 -331.5t-378.5 -135.5 q-108 0 -236.5 40t-146.5 40q-39 0 -59 -32.5t-33 -32.5q-14 0 -19 60t-5 269z" />
<glyph unicode="T" horiz-adv-x="1284" d="M0 922v6l117 473q1 5 6 9.5t10 4.5q2 0 24.5 -17.5t67.5 -17.5h844q45 0 71 18l25 17q6 0 9.5 -3.5t5.5 -11.5l104 -472v-6q0 -9 -5.5 -15t-12.5 -6q-18 0 -40.5 61t-49.5 105q-70 110 -168 177.5t-220 90.5v-1093q0 -83 12 -116.5t42 -51.5q26 -16 82.5 -22t56.5 -29 q0 -13 -8 -18t-27 -5h-608q-21 0 -29 5t-8 18q0 23 52 29t77 16q35 16 49.5 51t14.5 123v1093q-123 -23 -220 -90t-168 -178q-28 -45 -50 -105.5t-40 -60.5q-6 0 -11 6t-5 15z" />
<glyph unicode="U" horiz-adv-x="1513" d="M78 1354q0 14 9.5 20t33.5 6h532q23 0 32 -6t9 -20q0 -19 -38.5 -26t-57.5 -17q-35 -19 -49 -52t-14 -124v-754q0 -159 89.5 -252.5t237.5 -93.5q189 0 283 108t94 328v504q0 139 -29 218.5t-91 112.5q-22 12 -66.5 20t-44.5 28q0 14 9.5 20t33.5 6h419q24 0 33.5 -6 t9.5 -20q0 -21 -43.5 -28.5t-65.5 -19.5q-63 -33 -92.5 -112.5t-29.5 -218.5v-520q0 -237 -123.5 -360.5t-359.5 -123.5q-268 0 -414.5 112t-146.5 316v787q0 49 -20 82t-58 49q-14 5 -39 9q-43 8 -43 28z" />
<glyph unicode="V" horiz-adv-x="1276" d="M-55 1360q0 10 8.5 15t26.5 5h520q16 0 25.5 -5.5t9.5 -16.5q0 -17 -62.5 -30.5t-62.5 -59.5q0 -18 3.5 -37t12.5 -41l326 -860l252 676q16 41 24 81.5t8 79.5q0 60 -31.5 101.5t-84.5 52.5q-6 1 -15 3q-63 13 -63 32q0 12 10 18t29 6h462q18 0 26.5 -5t8.5 -15 q0 -18 -42 -30q-27 -8 -43 -15q-80 -33 -137.5 -110t-119.5 -238l-348 -914q-2 -6 -8 -21q-30 -79 -43 -79t-50 90q-6 14 -9 22l-455 1135q-25 63 -48 86.5t-63 34.5l-2 1q-65 16 -65 38z" />
<glyph unicode="W" horiz-adv-x="1837" d="M-35 1360q0 10 8 15t23 5h485q17 0 25 -5t8 -15q0 -17 -54 -33.5t-54 -60.5q0 -19 3 -37t11 -39l278 -832l191 596l-88 246q-21 57 -42.5 84t-51.5 37l-4 1q-60 18 -60 38q0 10 8 15t23 5h483q17 0 25 -4.5t8 -15.5q0 -18 -54.5 -34t-54.5 -60q0 -29 13 -70q1 -4 2 -6 l278 -832l219 648q16 49 23.5 88t7.5 71q0 61 -29 104t-75 52q-44 8 -57 16t-13 21q0 11 9 16.5t26 5.5h422q15 0 22.5 -5t7.5 -15q0 -19 -42 -33q-21 -7 -33 -12q-72 -32 -122.5 -104t-111.5 -244l-328 -941q-2 -6 -7 -19q-21 -54 -27 -54q-12 0 -39 69q-3 7 -4 10 l-308 859l-290 -864q-2 -5 -7 -16q-23 -58 -30 -58q-11 0 -39 69q-3 7 -4 10l-420 1168q-19 54 -40.5 81t-53.5 38q-4 1 -12 4q-54 18 -54 37z" />
<glyph unicode="X" horiz-adv-x="1415" d="M-25 20q1 21 48 32q18 4 28 7q85 24 190.5 126t211.5 266l139 213l-324 544q-53 89 -130 114t-77 36q0 12 8.5 17t26.5 5h535q17 0 26 -5.5t9 -16.5q0 -21 -55.5 -29.5t-55.5 -46.5q0 -12 6.5 -28.5t22.5 -45.5l219 -374l115 174q41 63 62 113.5t21 86.5q0 45 -16.5 73 t-50.5 40q-11 4 -31 8q-45 10 -45 29q0 12 8 17t27 5h422q20 0 28 -5t9 -17q0 -20 -42 -29q-19 -4 -30 -8q-63 -24 -134.5 -94.5t-148.5 -184.5l-168 -247l369 -611q33 -57 67.5 -87.5t74.5 -39.5q10 -2 28 -5q57 -10 57 -32q0 -10 -8.5 -15t-25.5 -5h-590q-19 0 -27 5 t-8 15q0 17 66.5 35.5t66.5 65.5q0 13 -11.5 40.5t-31.5 61.5l-238 402l-114 -183q-51 -79 -79 -147.5t-28 -114.5q0 -42 17 -73t46 -45q15 -7 44 -13q43 -10 43 -29q0 -10 -8 -15t-25 -5h-502q-18 0 -27.5 5t-9.5 15z" />
<glyph unicode="Y" horiz-adv-x="1249" d="M-49 1358q0 12 8 17t29 5h569q19 0 27 -5t8 -17q0 -18 -66.5 -34t-66.5 -69q0 -14 6 -37.5t16 -41.5l246 -467l227 368q22 33 32.5 65t10.5 60q0 44 -23 77t-61 44q-10 3 -30 7q-37 8 -37 28q0 12 8 17t27 5h393q19 0 27 -5t8 -17q0 -18 -32 -26q-24 -6 -38 -13 q-50 -24 -113 -90.5t-120 -157.5l-250 -395v-432q0 -88 14.5 -122.5t51.5 -54.5q17 -8 56.5 -15.5t39.5 -26.5q0 -14 -8.5 -19.5t-35.5 -5.5h-509q-27 0 -35 5.5t-8 19.5q0 19 39 26.5t56 15.5q37 19 51.5 53.5t14.5 123.5v364l-309 547q-38 67 -72.5 106t-68.5 56 q-15 6 -42 12q-40 8 -40 29z" />
<glyph unicode="Z" horiz-adv-x="1227" d="M16 12q1 4 2 6.5t5 8.5l808 1308h-63q-175 0 -311.5 -60.5t-225.5 -178.5q-36 -48 -70 -117.5t-48 -69.5q-9 0 -14 6.5t-5 16.5q0 1 1 4t1 4l142 440h911q13 0 18.5 -3t6.5 -11q0 -6 -9 -20q-1 -1 -2 -3l-807 -1298h93q164 0 300.5 58.5t243.5 175.5q67 71 114 163.5 t58 92.5q7 -1 12 -7.5t5 -13.5v-4l-148 -510h-995q-11 0 -16.5 3t-6.5 9z" />
<glyph unicode="[" horiz-adv-x="944" d="M330 -365v1719q0 38 6 45.5t22 7.5h19h338q18 0 26.5 -5t8.5 -16q0 -20 -41.5 -26.5t-63.5 -16.5q-33 -16 -47 -50t-14 -115v-1364q0 -82 11.5 -113.5t39.5 -48.5q23 -15 69 -22t46 -27q0 -11 -8.5 -16t-26.5 -5h-338q-6 0 -13.5 1t-9.5 1q-14 0 -19 6.5t-5 30.5v14z" />
<glyph unicode="\" horiz-adv-x="1012" d="M49 1407h94l869 -1597h-97z" />
<glyph unicode="]" horiz-adv-x="944" d="M195 -397q0 20 40.5 27t63.5 18q34 16 47.5 49.5t13.5 116.5v1364q0 79 -11.5 111.5t-39.5 49.5q-24 15 -69 21t-45 26q0 12 7 16.5t27 4.5h361q14 0 19 -8t5 -45v-1719q0 -37 -5 -44t-23 -7h-3q-7 -2 -14 -2h-340q-20 0 -27 4.5t-7 16.5z" />
<glyph unicode="^" horiz-adv-x="2048" d="M412 897l503 565h215l502 -565h-104l-506 397l-506 -397h-104z" />
<glyph unicode="_" horiz-adv-x="1024" d="M0 -311h1024v-172h-1024v172z" />
<glyph unicode="`" horiz-adv-x="1024" d="M207 1329q0 38 26.5 64t63.5 26q28 0 55.5 -16t69.5 -60l283 -299h-89l-327 187q-46 26 -64 48.5t-18 49.5z" />
<glyph unicode="a" horiz-adv-x="1059" d="M86 166q0 81 63 141t222 127l258 109v288q0 29 -15 42.5t-47 13.5q-67 0 -117.5 -33.5t-58.5 -85.5q-20 -135 -59.5 -186.5t-114.5 -51.5q-47 0 -75.5 28t-28.5 73t34.5 91t102.5 91q86 57 186 89t191 32q122 0 189 -55.5t67 -157.5v-578q0 -36 10 -53.5t31 -17.5 t52.5 25.5t43.5 25.5q9 -1 13.5 -5t4.5 -12q0 -28 -80.5 -81.5t-158.5 -53.5q-67 0 -111 36.5t-59 105.5q-100 -71 -180 -104.5t-150 -33.5q-95 0 -154 53t-59 138zM346 233q0 -77 25.5 -119t72.5 -42q33 0 83 25.5t102 70.5v330l-115 -52q-95 -41 -131.5 -87.5 t-36.5 -125.5z" />
<glyph unicode="b" horiz-adv-x="1165" d="M8 1380q0 16 133 47.5t260 79.5v-694q71 59 144.5 89t150.5 30q173 0 279 -120t106 -320q0 -218 -144 -369.5t-353 -151.5q-76 0 -154 23.5t-154 68.5l-67 -69q-11 -11 -20 -17t-15 -6q-14 0 -20.5 16t-6.5 54v1157q0 66 -17 97t-65 51q-10 4 -26 9q-31 10 -31 25z M401 238q0 -117 41 -171.5t127 -54.5q120 0 183 103.5t63 298.5q0 192 -69.5 304.5t-184.5 112.5q-44 0 -84.5 -15.5t-75.5 -45.5v-532z" />
<glyph unicode="c" horiz-adv-x="1014" d="M70 430q0 216 139 360t344 144q159 0 273 -93.5t114 -213.5q0 -71 -35 -114.5t-90 -43.5q-56 0 -91.5 40.5t-35.5 104.5q0 25 7 68.5t7 60.5q0 67 -42.5 108.5t-110.5 41.5q-105 0 -173.5 -95.5t-68.5 -244.5q0 -174 99 -286.5t249 -112.5q149 0 248 139q21 30 29 31 q8 0 11 -4.5t3 -16.5q0 -17 -13.5 -54t-35.5 -75q-61 -101 -153.5 -152t-215.5 -51q-192 0 -325 133t-133 326z" />
<glyph unicode="d" horiz-adv-x="1171" d="M82 389q0 235 146.5 390t365.5 155q34 0 74 -5.5t88 -17.5v287q0 66 -17 97t-66 51q-9 4 -27 9q-32 10 -32 25q0 16 133.5 47.5t262.5 79.5v-1222q0 -77 13 -106.5t46 -45.5q17 -8 50.5 -14t33.5 -23q0 -16 -136 -44t-261 -81v156q-93 -81 -172 -118.5t-158 -37.5 q-152 0 -248 116.5t-96 301.5zM344 485q0 -184 63 -287.5t175 -103.5q47 0 91 21t83 61v447q0 143 -41 207.5t-131 64.5q-111 0 -175.5 -109.5t-64.5 -300.5z" />
<glyph unicode="e" horiz-adv-x="1032" d="M72 440q0 208 139 351t340 143q170 0 285.5 -116t115.5 -281q0 -1 1 -3q1 -9 1 -16h-637q8 -163 102 -263.5t236 -100.5q149 0 248 139q21 30 29 31q8 0 11 -4.5t3 -16.5q0 -17 -13.5 -54t-35.5 -75q-59 -97 -151.5 -150t-204.5 -53q-196 0 -332.5 136t-136.5 333z M315 561h394q0 13 1 25l1 12q0 148 -43.5 221.5t-130.5 73.5q-95 0 -155.5 -89.5t-66.5 -242.5z" />
<glyph unicode="f" horiz-adv-x="692" d="M59 809q98 61 178 275q12 33 19 51q82 216 151 294t162 78q76 0 130.5 -55.5t54.5 -134.5q0 -61 -34.5 -101t-84.5 -40q-44 0 -70 39t-26 106q0 6 2 19t2 18q0 38 -13.5 58t-37.5 20q-35 0 -64 -43.5t-29 -102.5q0 -64 31.5 -192t34.5 -192l201 -1l-37 -96h-162v-604 q0 -70 15.5 -101.5t54.5 -46.5q10 -3 29 -8q34 -7 34 -24q0 -14 -9.5 -19.5t-39.5 -5.5h-455q-12 0 -19 7t-7 18q0 16 31 23q21 5 32 9q39 15 54.5 46.5t15.5 101.5v604h-144z" />
<glyph unicode="g" horiz-adv-x="1135" d="M74 -213q0 34 15 62.5t44 52.5q18 16 42 28.5t56 22.5q-43 26 -65.5 65t-22.5 91q0 101 80 157t239 66q-152 27 -231 99t-79 183q0 130 112 219.5t289 98.5q13 133 73.5 214t143.5 81q49 0 81 -30.5t32 -76.5q0 -52 -31.5 -85.5t-79.5 -33.5q-20 0 -51 12.5t-45 12.5 q-39 0 -58 -22.5t-24 -73.5q173 -9 277 -92t104 -211q0 -130 -104.5 -211.5t-299.5 -104.5q-150 -16 -197.5 -38.5t-47.5 -65.5q0 -62 257 -66q65 -1 102 -2q193 -5 281.5 -64.5t88.5 -183.5q0 -152 -140.5 -239.5t-388.5 -87.5q-211 0 -331.5 60t-120.5 163zM188 -203 q0 -89 89.5 -139.5t250.5 -50.5q173 0 266 46t93 130q0 53 -40.5 83t-121.5 38q-68 6 -224 7t-225 21q-42 -22 -65 -57.5t-23 -77.5zM420 614q0 -141 33 -201.5t108 -60.5q79 0 113.5 64.5t34.5 216.5q0 140 -34 201t-110 61t-110.5 -66t-34.5 -215z" />
<glyph unicode="h" horiz-adv-x="1210" d="M39 1380q0 16 133.5 47.5t261.5 79.5v-731q111 84 197 121t168 37q119 0 177 -68.5t58 -208.5v-452q0 -70 15.5 -101.5t54.5 -46.5q10 -3 29 -8q34 -7 34 -24q0 -14 -9.5 -19.5t-39.5 -5.5h-442q-12 0 -19.5 7t-7.5 18q1 16 32 23q19 4 31 9q39 14 53.5 45.5t14.5 102.5 v448q0 83 -33.5 124.5t-101.5 41.5q-48 0 -103 -25.5t-108 -72.5v-516q0 -71 15 -102.5t53 -45.5q10 -3 29 -8q34 -7 34 -24q0 -14 -9.5 -19.5t-39.5 -5.5h-442q-12 0 -19.5 7t-7.5 18q1 16 32 23q19 4 31 9q39 15 54.5 46.5t15.5 101.5v993q0 66 -17 97t-64 50 q-11 5 -28 10q-32 10 -32 25z" />
<glyph unicode="i" horiz-adv-x="651" d="M57 807q0 16 137 46.5t269 80.5v-729q0 -71 15 -102.5t53 -45.5q10 -3 30 -8q35 -7 35 -24q0 -14 -9.5 -19.5t-39.5 -5.5h-455q-12 0 -19 7t-7 18q0 16 31 23q21 5 33 10q38 14 53.5 45.5t15.5 101.5v420q0 65 -17.5 96t-64.5 51q-11 5 -28 10q-31 9 -32 25zM172 1221 q0 61 44 106t106 45t106.5 -44.5t44.5 -106.5q0 -61 -45.5 -105.5t-105.5 -44.5t-105 45t-45 105z" />
<glyph unicode="j" horiz-adv-x="625" d="M-141 -274q0 45 32.5 76.5t81.5 31.5q53 0 86 -35t33 -92q0 -60 13.5 -76t46.5 -16q50 0 82 29t32 75q0 17 -36.5 98t-36.5 163v645q0 64 -18 95.5t-66 51.5q-10 4 -28 10q-30 10 -30 25q0 16 137 46.5t269 80.5v-1002q0 -164 -101.5 -266t-261.5 -102q-104 0 -169.5 45 t-65.5 117zM166 1221q0 61 44 106t105 45q63 0 106.5 -44t43.5 -107q0 -62 -44.5 -106t-105.5 -44q-60 0 -104.5 45t-44.5 105z" />
<glyph unicode="k" horiz-adv-x="1255" d="M39 1380q0 16 133.5 47.5t261.5 79.5v-1071q202 140 284.5 221t82.5 136q0 50 -69.5 61t-69.5 29q0 11 7 16.5t21 5.5h21h389q12 0 19 -6t7 -16q0 -20 -72 -26t-120 -38q-40 -26 -96.5 -96.5t-81.5 -95.5l274 -457l4 -6q60 -97 133 -113q2 0 6 -1q41 -8 41 -25 q0 -14 -9.5 -19.5t-39.5 -5.5h-493q-12 0 -19.5 7t-7.5 18q0 19 61.5 29t61.5 44q0 10 -5.5 23.5t-17.5 34.5l-186 319q-23 -19 -52 -40t-73 -50v-180q0 -71 15 -102.5t53 -45.5q10 -3 29 -8q34 -7 34 -24q0 -14 -9.5 -19.5t-39.5 -5.5h-442q-12 0 -19.5 7t-7.5 18 q1 16 32 23q19 4 31 9q39 15 54.5 46.5t15.5 101.5v993q0 66 -17 97t-64 50q-11 5 -28 10q-32 10 -32 25z" />
<glyph unicode="l" horiz-adv-x="643" d="M47 1380q0 16 137 47t269 80v-1302q0 -70 15.5 -101.5t54.5 -46.5q9 -3 28 -8q35 -7 35 -24q0 -14 -9.5 -19.5t-39.5 -5.5h-455q-12 0 -19.5 7t-7.5 18q1 16 32 23q19 4 31 9q39 15 54.5 46.5t15.5 101.5v993q0 66 -17 97t-65 51q-10 4 -27 9q-32 10 -32 25z" />
<glyph unicode="m" horiz-adv-x="1796" d="M51 801q0 13 128 44.5t255 88.5v-158q110 82 195.5 120t158.5 38q92 0 150 -42.5t78 -123.5q105 83 195.5 124.5t168.5 41.5q118 0 176 -68t58 -209v-452q0 -70 15.5 -101.5t54.5 -46.5q9 -3 29 -8q34 -7 34 -24q0 -14 -9.5 -19.5t-39.5 -5.5h-432q-12 0 -19.5 7t-7.5 18 q0 15 32 23q19 4 31 9q39 15 54.5 46.5t15.5 101.5v448q0 83 -34.5 125.5t-100.5 42.5q-49 0 -106.5 -27t-112.5 -77q3 -49 4.5 -80t1.5 -39v-393q0 -70 15.5 -101.5t54.5 -46.5q10 -3 29 -8q34 -7 34 -24q0 -14 -9.5 -19.5t-39.5 -5.5h-432q-12 0 -19.5 7t-7.5 18 q1 16 32 23q19 4 31 9q39 15 54.5 46.5t15.5 101.5v448q0 83 -33.5 124.5t-101.5 41.5q-48 0 -104 -25.5t-109 -72.5v-516q0 -71 15 -102.5t53 -45.5q10 -3 30 -8q35 -7 35 -24q0 -14 -9.5 -19.5t-39.5 -5.5h-432q-12 0 -19.5 7t-7.5 18q1 16 32 23q21 5 31 9 q40 15 55.5 46.5t15.5 101.5v413q0 65 -18 96t-66 52q-10 4 -28 10q-30 10 -30 25z" />
<glyph unicode="n" horiz-adv-x="1214" d="M43 801q0 15 133.5 47t261.5 80v-152q110 83 197 120.5t170 37.5q119 0 177 -68.5t58 -208.5v-452q0 -71 15 -102.5t52 -44.5q11 -4 30 -9q34 -7 34 -24q0 -14 -9.5 -19.5t-39.5 -5.5h-442q-12 0 -19.5 7t-7.5 18q1 16 32 23q19 4 31 9q40 15 55 46.5t15 101.5v448 q0 83 -33.5 124.5t-101.5 41.5q-48 0 -104 -25.5t-109 -72.5v-516q0 -71 15 -102.5t53 -45.5q10 -3 30 -8q35 -7 35 -24q0 -14 -9.5 -19.5t-39.5 -5.5h-444q-12 0 -19.5 7t-7.5 18q1 16 32 23q19 4 31 9q39 15 54.5 46.5t15.5 101.5v413q0 66 -17 97t-65 51q-9 4 -28 10 q-31 10 -31 25z" />
<glyph unicode="o" horiz-adv-x="1149" d="M70 453q0 211 140.5 346t362.5 135q223 0 364.5 -135.5t141.5 -345.5q0 -211 -141.5 -346.5t-364.5 -135.5q-222 0 -362.5 134.5t-140.5 347.5zM348 453q0 -223 55.5 -332t169.5 -109q115 0 171.5 109.5t56.5 331.5q0 221 -57 331.5t-171 110.5q-113 0 -169 -109.5 t-56 -332.5z" />
<glyph unicode="p" horiz-adv-x="1171" d="M25 801q0 15 133.5 47t261.5 80v-140q96 77 174 111.5t154 34.5q151 0 247.5 -115.5t96.5 -298.5q0 -239 -147 -389.5t-380 -150.5q-35 0 -71 5t-74 15v-213q0 -69 15.5 -101.5t51.5 -43.5q14 -5 36 -9q38 -8 38 -26q0 -11 -7.5 -18t-21.5 -7h-20h-453q-12 0 -19 7t-7 18 q0 16 31 23q21 5 33 10q39 16 54 47t15 100v831q0 66 -17 97t-65 51q-10 4 -28 10q-31 9 -31 25zM420 291q0 -140 40 -204t126 -64q111 0 178 108t67 293q0 169 -69 277t-172 108q-44 0 -85.5 -19t-84.5 -59v-440z" />
<glyph unicode="q" horiz-adv-x="1161" d="M82 387q0 234 147 390.5t365 156.5q79 0 150 -23t139 -71l69 65q17 17 26 23t15 6q7 0 10 -5t3 -18v-26v-1098q0 -68 15 -99.5t55 -48.5q11 -4 31 -9q31 -7 32 -23q0 -11 -8 -18t-21 -7h-20h-445q-12 0 -19.5 7t-7.5 18q1 16 32 23q21 5 31 9q41 17 56 48t15 100v319 q-70 -66 -143 -98.5t-154 -32.5q-165 0 -269 115t-104 297zM342 475q0 -179 68.5 -281t187.5 -102q41 0 79 17.5t75 52.5v510q0 112 -40.5 165.5t-125.5 53.5q-117 0 -180.5 -108.5t-63.5 -307.5z" />
<glyph unicode="r" horiz-adv-x="881" d="M57 807q0 17 135 48t263 79v-270q42 130 109 200t151 70q64 0 105.5 -39t41.5 -98q0 -55 -34 -95t-80 -40q-47 0 -84.5 44t-63.5 44q-62 0 -99.5 -78t-37.5 -211v-256q0 -71 15 -102.5t53 -45.5q10 -3 30 -8q35 -7 35 -24q0 -14 -9.5 -19.5t-39.5 -5.5h-455q-12 0 -19 7 t-7 18q0 16 31 23q21 5 33 10q38 14 53.5 45.5t15.5 101.5v420q0 65 -17.5 96t-64.5 51q-11 5 -28 10q-31 9 -32 25z" />
<glyph unicode="s" horiz-adv-x="901" d="M92 348q0 16 5 23.5t16 7.5q17 0 30 -49q12 -47 25 -78q49 -120 121 -179t170 -59q84 0 136 41t52 105q0 52 -42 91t-161 87l-22 9q-322 127 -322 296q0 125 99.5 208t253.5 83q68 0 143.5 -13.5t162.5 -41.5q3 -82 7 -166.5t4 -89.5q0 -15 -4.5 -23t-13.5 -8 q-18 0 -32 49.5t-32 83.5q-42 80 -106 124t-138 44q-68 0 -112.5 -35t-44.5 -88q0 -86 233 -182q22 -9 36 -15q174 -72 229 -132t55 -152q0 -138 -113.5 -228t-296.5 -90q-86 0 -169 15.5t-159 44.5q-1 41 -4 115q-6 177 -6 202z" />
<glyph unicode="t" horiz-adv-x="817" d="M43 809q123 64 223.5 164.5t182.5 240.5v-309h260l-35 -96h-225v-545q0 -97 30 -142.5t94 -45.5q62 0 114.5 51t60.5 51q5 0 10.5 -7t5.5 -15q0 -55 -95 -120t-214 -65q-125 0 -198 63t-73 171v604h-141z" />
<glyph unicode="u" horiz-adv-x="1210" d="M35 807q0 16 132.5 47.5t260.5 79.5v-680q0 -88 32 -129t101 -41q48 0 104 26.5t111 75.5v439q0 65 -17 96t-65 51q-9 4 -28 10q-31 10 -31 25q0 16 133.5 47.5t261.5 79.5v-645q0 -84 13 -116t47 -50q17 -9 51 -16.5t35 -24.5q0 -15 -139 -30.5t-261 -67.5v145 q-105 -81 -193 -119.5t-169 -38.5q-122 0 -181 68t-59 209v377q0 65 -17 96t-65 51q-9 4 -27 10q-30 9 -30 25z" />
<glyph unicode="v" horiz-adv-x="915" d="M-43 881q0 14 7.5 19t39.5 5h414q12 0 19 -5.5t7 -14.5q0 -17 -50 -30t-50 -52q0 -12 3.5 -25t14.5 -38l197 -468l166 357q13 26 20 55t7 53q0 76 -63.5 106.5t-63.5 39.5q0 12 9.5 17t39.5 5h262q30 0 38.5 -5t8.5 -19q0 -8 -20 -18q-108 -53 -195 -238l-295 -631 q-5 -12 -10.5 -17.5t-11.5 -5.5q-7 0 -13 13l-2 4l-336 745q-42 92 -92.5 118.5t-50.5 29.5z" />
<glyph unicode="w" horiz-adv-x="1446" d="M-45 881q0 13 9 18.5t38 5.5h385q28 0 34.5 -4t6.5 -14q0 -20 -43 -33.5t-43 -48.5q0 -25 15 -62q1 -2 1 -4l187 -469l151 355l-41 108q-34 91 -87.5 117t-53.5 33q0 12 9 17t38 5h381q25 0 34 -5t9 -17q0 -15 -46 -28t-46 -54q0 -18 13 -52l3 -9l183 -468l153 363 q13 29 20 61t7 58q0 69 -59.5 93.5t-59.5 33.5q0 13 9.5 18.5t39.5 5.5h264q27 0 37 -5t10 -17q0 -15 -29 -22q-12 -3 -18 -5q-46 -16 -93.5 -76t-88.5 -155l-276 -631q-5 -11 -11 -17t-12 -6q-3 0 -6 3.5t-8 12.5l-252 591l-258 -584q-4 -10 -10.5 -16.5t-12.5 -6.5t-11 15 q-1 1 -1 2l-328 737q-41 92 -92 123t-51 33z" />
<glyph unicode="x" horiz-adv-x="1042" d="M-27 20q0 21 47 30q16 4 23 5q51 12 100.5 54t126.5 141l144 184l-199 299q-41 62 -66.5 87t-52.5 32q-8 2 -24 4q-39 6 -39 27q0 12 9 17t38 5h420q32 0 39.5 -4t7.5 -14q0 -19 -42 -29t-42 -43q0 -15 6 -30.5t18 -34.5l111 -168l72 88q24 30 35.5 58t11.5 56 q0 49 -49.5 67t-49.5 30q0 14 8 19t40 5h301q29 0 38 -5t9 -17q-1 -12 -9.5 -17.5t-39.5 -11.5q-58 -12 -107 -46.5t-113 -111.5l-124 -145l266 -397q52 -79 115 -102t63 -36q0 -8 -8.5 -12t-38.5 -4h-467q-24 0 -31.5 4.5t-7.5 15.5q0 19 52 30.5t52 49.5q0 12 -4.5 26.5 t-13.5 27.5l-164 247l-72 -96q-33 -45 -49 -85.5t-16 -76.5q0 -63 53 -87t53 -33q0 -13 -9 -18t-38 -5h-336q-31 0 -39 4.5t-8 15.5z" />
<glyph unicode="y" horiz-adv-x="942" d="M-51 885q0 10 7.5 15t23.5 5h18h393q29 0 38 -5t9 -17q0 -15 -43 -29t-43 -51q0 -9 3.5 -20.5t11.5 -28.5l215 -500l141 324q16 35 25.5 73.5t9.5 65.5q0 87 -67.5 124t-67.5 42q0 12 9 17t38 5h297q29 0 37.5 -4t9.5 -16q0 -17 -33 -30q-17 -6 -26 -11 q-45 -22 -89.5 -84.5t-91.5 -167.5l-375 -846q-37 -84 -97 -132t-128 -48q-63 0 -107 42.5t-44 102.5q0 53 34 89t84 36q55 0 97 -69.5t65 -69.5q15 0 30.5 16t28.5 45l95 213l-346 752q-44 93 -103 124.5t-59 37.5z" />
<glyph unicode="z" horiz-adv-x="969" d="M41 0l573 870q-116 0 -210.5 -36.5t-159.5 -106.5q-51 -56 -85.5 -124t-47.5 -68q-8 0 -12.5 4.5t-4.5 9.5v4l88 352h736l-574 -870q130 0 236.5 42t185.5 124q50 52 85.5 137.5t51.5 85.5q5 0 8.5 -3.5t3.5 -10.5v-4l-77 -406h-797z" />
<glyph unicode="{" horiz-adv-x="1024" d="M178 602v68q159 15 216 76t57 223v200q0 200 84.5 273.5t314.5 73.5v-57q-128 -2 -175.5 -55t-47.5 -210v-137q0 -225 -56.5 -307.5t-208.5 -114.5q152 -32 208.5 -114.5t56.5 -307.5v-137q0 -157 47 -209t176 -54v-57h-10q-222 0 -305.5 74t-83.5 272v201 q0 161 -58 223.5t-215 75.5z" />
<glyph unicode="|" horiz-adv-x="1024" d="M424 -483v2048h178v-2048h-178z" />
<glyph unicode="}" horiz-adv-x="1024" d="M174 -187q129 2 176 54t47 209v137q0 227 56.5 308.5t208.5 113.5q-151 32 -208 113.5t-57 308.5v137q0 157 -47.5 210t-175.5 55v57h10q223 0 307 -74.5t84 -272.5v-200q0 -162 57 -223t216 -76v-68q-157 -13 -215 -74.5t-58 -224.5v-201q0 -197 -84 -271.5t-307 -74.5 h-10v57z" />
<glyph unicode="~" horiz-adv-x="1706" d="M178 434v187q106 72 202 107.5t185 35.5q62 0 125.5 -12t168.5 -48q13 -4 42 -15q164 -58 250 -58q85 0 177 37t202 116v-184q-103 -71 -197.5 -106t-183.5 -35q-44 0 -92.5 8.5t-98.5 26.5q-25 8 -76 26q-212 74 -319 74q-82 0 -174 -38t-211 -122z" />
<glyph d="M-4 551l16 57h137q-1 14 -1.5 29t-0.5 45q0 35 1 53.5t4 34.5h-156l16 57h146q42 259 185 419.5t349 160.5q107 0 224 -54.5t131 -54.5q32 0 44.5 51.5t26.5 51.5q19 0 26 -38t7 -159q0 -34 -1 -110.5t-1 -155.5q0 -22 -5 -32.5t-16 -10.5q-19 0 -42 67q-20 59 -37 101 q-59 138 -150.5 218.5t-187.5 80.5q-132 0 -195.5 -123.5t-77.5 -411.5h500l-16 -57h-483q-2 -20 -2.5 -43.5t-0.5 -73.5v-45h459l-16 -57h-441q7 -280 68 -406.5t188 -126.5q109 0 206.5 75.5t156.5 205.5q24 54 39 111t34 57q15 0 20 -7.5t5 -29.5q-1 -87 -2.5 -186 t-1.5 -144v-59q0 -33 -5 -45t-18 -12q-10 0 -29.5 46t-45.5 46q-13 0 -132 -52.5t-229 -52.5q-211 0 -358 159.5t-178 420.5h-160z" />
<glyph unicode="&#x20ac;" d="M-4 551l16 57h137q-1 14 -1.5 29t-0.5 45q0 35 1 53.5t4 34.5h-156l16 57h146q42 259 185 419.5t349 160.5q107 0 224 -54.5t131 -54.5q32 0 44.5 51.5t26.5 51.5q19 0 26 -38t7 -159q0 -34 -1 -110.5t-1 -155.5q0 -22 -5 -32.5t-16 -10.5q-19 0 -42 67q-20 59 -37 101 q-59 138 -150.5 218.5t-187.5 80.5q-132 0 -195.5 -123.5t-77.5 -411.5h500l-16 -57h-483q-2 -20 -2.5 -43.5t-0.5 -73.5v-45h459l-16 -57h-441q7 -280 68 -406.5t188 -126.5q109 0 206.5 75.5t156.5 205.5q24 54 39 111t34 57q15 0 20 -7.5t5 -29.5q-1 -87 -2.5 -186 t-1.5 -144v-59q0 -33 -5 -45t-18 -12q-10 0 -29.5 46t-45.5 46q-13 0 -132 -52.5t-229 -52.5q-211 0 -358 159.5t-178 420.5h-160z" />
<glyph unicode="&#xa0;" />
<glyph unicode="&#xa1;" horiz-adv-x="698" d="M188 219q0 132 69 361t69 327q0 6 -1 14t-1 9q0 21 6 31t20 10t19.5 -11t5.5 -40q0 -108 67.5 -337.5t67.5 -353.5q0 -118 -44.5 -188t-119.5 -70q-70 0 -114 68.5t-44 179.5zM190 1249q0 66 47.5 112t112.5 46q64 0 111 -47t47 -111q0 -65 -47.5 -112t-114.5 -47 q-64 0 -110 46.5t-46 112.5z" />
<glyph unicode="&#xa2;" d="M168 680q0 210 137 347.5t344 137.5q37 0 77 -7t81 -21l104 243h62l-113 -268q82 -52 126 -116.5t44 -131.5q0 -61 -36 -103t-87 -42q-54 0 -89.5 39t-35.5 100q0 13 1.5 31.5t4.5 45.5l-210 -491q39 -24 80.5 -35.5t91.5 -11.5q128 0 224 123q22 29 30 29q7 0 10.5 -5 t3.5 -16q0 -98 -123.5 -206.5t-276.5 -108.5q-28 0 -59 5.5t-67 17.5l-101 -236h-63l108 252q-130 68 -199 177.5t-69 250.5zM399 786q0 -97 33.5 -176t97.5 -133l242 574q-22 36 -54.5 53.5t-76.5 17.5q-105 0 -173.5 -94.5t-68.5 -241.5z" />
<glyph unicode="&#xa3;" d="M106 152q0 93 70 154t176 61q51 0 112.5 -18.5t121.5 -51.5q2 10 3 18.5t1 18.5q0 69 -45.5 144.5t-143.5 166.5h-268v55h223q-75 96 -110 180t-35 169q0 147 105.5 254.5t246.5 107.5q90 0 181.5 -36t101.5 -36q32 0 45.5 35t26.5 35q9 0 14.5 -6t7.5 -19l49 -426 q0 -3 1 -9t1 -9q0 -10 -5.5 -16t-14.5 -6q-15 0 -40.5 80t-64.5 149q-60 106 -141 164.5t-168 58.5q-79 0 -128.5 -50.5t-49.5 -129.5q0 -111 150 -257l10 -9q87 -88 121 -133.5t53 -90.5h262v-55h-248q5 -27 7.5 -51t2.5 -45q0 -72 -24 -147t-68 -140q77 -41 130.5 -58.5 t101.5 -17.5q63 0 112 28.5t80 82.5q24 44 35 108t29 64q6 0 12 -10t6 -25q0 -197 -95.5 -330t-242.5 -133q-77 0 -146.5 29.5t-136.5 89.5q-59 -66 -109 -93.5t-108 -27.5q-91 0 -149 51t-58 132zM156 145q0 -58 43 -96.5t106 -38.5q53 0 101 27.5t90 81.5 q-76 80 -124.5 112.5t-90.5 32.5q-56 0 -90.5 -32.5t-34.5 -86.5z" />
<glyph unicode="&#xa4;" d="M-4 551l16 57h137q-1 14 -1.5 29t-0.5 45q0 35 1 53.5t4 34.5h-156l16 57h146q42 259 185 419.5t349 160.5q107 0 224 -54.5t131 -54.5q32 0 44.5 51.5t26.5 51.5q19 0 26 -38t7 -159q0 -34 -1 -110.5t-1 -155.5q0 -22 -5 -32.5t-16 -10.5q-19 0 -42 67q-20 59 -37 101 q-59 138 -150.5 218.5t-187.5 80.5q-132 0 -195.5 -123.5t-77.5 -411.5h500l-16 -57h-483q-2 -20 -2.5 -43.5t-0.5 -73.5v-45h459l-16 -57h-441q7 -280 68 -406.5t188 -126.5q109 0 206.5 75.5t156.5 205.5q24 54 39 111t34 57q15 0 20 -7.5t5 -29.5q-1 -87 -2.5 -186 t-1.5 -144v-59q0 -33 -5 -45t-18 -12q-10 0 -29.5 46t-45.5 46q-13 0 -132 -52.5t-229 -52.5q-211 0 -358 159.5t-178 420.5h-160z" />
<glyph unicode="&#xa5;" d="M10 1358q0 12 7.5 17t23.5 5h498q18 0 24 -4.5t6 -17.5q0 -18 -58 -34t-58 -71q0 -13 6 -34t16 -43l213 -467l201 368q18 33 27.5 65.5t9.5 59.5q0 45 -20 78t-52 43q-9 3 -27 7q-34 8 -34 28q0 12 7 17t23 5h344q16 0 23.5 -5t7.5 -17q0 -19 -30 -28q-20 -7 -31 -13 q-46 -26 -101.5 -91.5t-103.5 -154.5l-135 -244h364v-57h-395l-51 -94v-68h446v-57h-446v-307q0 -91 14 -124.5t50 -52.5q17 -8 56 -15.5t39 -26.5q0 -14 -8 -19.5t-35 -5.5h-473q-27 0 -35 5.5t-8 19.5q0 19 39.5 26.5t57.5 16.5q36 18 50.5 52.5t14.5 123.5v307h-430v57 h430l-82 162h-348v57h318l-158 328q-32 65 -63.5 106.5t-61.5 57.5q-14 7 -38 12q-34 6 -34 27z" />
<glyph unicode="&#xa6;" horiz-adv-x="1024" d="M424 -350v758h178v-758h-178zM424 674v758h178v-758h-178z" />
<glyph unicode="&#xa7;" horiz-adv-x="1024" d="M113 123q0 11 4.5 16.5t13.5 5.5q10 0 43.5 -70.5t71.5 -121.5q57 -80 117 -115t139 -35q93 0 150 49.5t57 131.5q0 112 -227 214q-33 15 -50 23q-157 72 -227 142.5t-70 154.5q0 96 62.5 170.5t181.5 118.5q-106 43 -157.5 116t-51.5 181q0 130 93 216.5t233 86.5 q65 0 146 -24.5t91 -24.5q20 0 38.5 15.5t25.5 15.5q12 0 16 -12t4 -54v-82q0 -28 3 -75.5t3 -67.5q0 -19 -4 -29t-12 -10q-15 0 -37 68t-63 122q-42 57 -97.5 88t-113.5 31q-71 0 -119.5 -47.5t-48.5 -114.5q0 -101 214 -212q35 -18 54 -27q164 -86 229.5 -161t65.5 -169 q0 -81 -56.5 -152.5t-156.5 -115.5q95 -42 147 -110t52 -150q0 -148 -112 -248.5t-286 -100.5q-70 0 -150 17.5t-91 17.5t-29 -9t-25 -9q-13 0 -16 21q-1 7 -2 12q-14 86 -33.5 193t-19.5 120zM295 633q0 -98 280 -220q41 -18 64 -28q49 30 72.5 67t23.5 83q0 100 -284 240 l-35 18q-64 -31 -92.5 -69t-28.5 -91z" />
<glyph unicode="&#xa8;" horiz-adv-x="1024" d="M207 1214q0 48 36.5 83.5t84.5 35.5t83 -35t35 -84q0 -51 -33.5 -85.5t-84.5 -34.5t-86 35t-35 85zM575 1214q0 48 36.5 83.5t84.5 35.5q49 0 84 -35t35 -84q0 -51 -34 -85.5t-85 -34.5q-49 0 -85 35t-36 85z" />
<glyph unicode="&#xa9;" horiz-adv-x="1683" d="M121 678q0 143 54 274.5t157 235.5q102 102 235 157.5t277 55.5q140 0 272.5 -55.5t233.5 -155.5q101 -102 157 -235.5t56 -276.5q0 -142 -55.5 -274t-157.5 -236q-101 -102 -231 -155.5t-277 -53.5q-145 0 -274.5 53t-233.5 156q-104 104 -158.5 234.5t-54.5 275.5z M219 678q0 -126 47.5 -239.5t136.5 -202.5q91 -91 201.5 -137t237.5 -46q126 0 238.5 47t199.5 136q88 89 136 204.5t48 237.5q0 124 -48 241.5t-136 204.5q-86 86 -200 133.5t-236 47.5q-126 0 -241 -48t-202 -137q-88 -90 -135 -203.5t-47 -238.5zM416 670 q0 184 119.5 309t295.5 125q80 0 154 -33t78 -33q28 0 41.5 14t19.5 48h41l2 -320h-47q-32 134 -102 203.5t-172 69.5q-116 0 -176 -94t-60 -275q0 -184 65 -281.5t189 -97.5q82 0 151 43.5t126 130.5l43 -26q-63 -108 -150 -160.5t-200 -52.5q-177 0 -297.5 124t-120.5 306 z" />
<glyph unicode="&#xaa;" horiz-adv-x="795" d="M66 862q0 56 46 97.5t167 89.5l192 77v201q0 21 -10.5 30t-34.5 9q-51 0 -89 -23t-44 -59q-15 -95 -44 -131.5t-85 -36.5q-37 0 -58.5 19.5t-21.5 52.5q0 31 26.5 63t77.5 64q65 39 140 61.5t143 22.5q92 0 141.5 -38.5t49.5 -111.5v-403q0 -24 7.5 -36.5t22.5 -12.5 q17 0 41 17t33 17q5 0 8.5 -3t3.5 -9q0 -19 -60 -56.5t-118 -37.5q-51 0 -84 25.5t-45 74.5q-74 -49 -133.5 -72.5t-112.5 -23.5q-72 0 -115.5 36.5t-43.5 96.5zM260 909q0 -55 19 -83.5t55 -28.5q25 0 62.5 17.5t74.5 47.5v232l-86 -35q-72 -31 -98.5 -63t-26.5 -87z" />
<glyph unicode="&#xab;" horiz-adv-x="891" d="M90 461q0 5 4 11.5t12 14.5l351 342q3 4 8 6.5t8 2.5q8 0 14.5 -6t6.5 -13q0 -4 -1.5 -8t-3.5 -8l-194 -344l199 -345q3 -6 4.5 -10.5t1.5 -7.5q0 -8 -7 -15t-16 -7q-6 0 -9 1t-7 5l-357 358q-6 7 -10 13t-4 10zM391 461q0 5 4 11.5t13 14.5l350 342q4 4 8 6.5t8 2.5 q9 0 15 -6t6 -13q0 -4 -1.5 -8t-2.5 -8l-195 -344l197 -345l3 -6q5 -9 5 -12q0 -8 -6.5 -15t-16.5 -7q-6 0 -9 1t-7 5l-356 358q-8 7 -11.5 13t-3.5 10z" />
<glyph unicode="&#xac;" horiz-adv-x="1706" d="M254 696v166h1198v-502h-166v336h-1032z" />
<glyph unicode="&#xad;" horiz-adv-x="596" d="M94 358v203h406v-203h-406z" />
<glyph unicode="&#xae;" horiz-adv-x="1683" d="M121 678q0 143 54.5 275t156.5 235q102 102 235 157.5t277 55.5t279 -57t235 -160q98 -102 151.5 -235.5t53.5 -278.5q0 -138 -59.5 -272.5t-166.5 -239.5q-101 -100 -228 -149.5t-282 -49.5q-135 0 -264 54.5t-229 154.5q-105 104 -159 234t-54 276zM219 678 q0 -126 47.5 -239.5t136.5 -202.5q91 -91 201.5 -137t237.5 -46q126 0 238.5 47t199.5 136q89 90 136.5 204.5t47.5 237.5q0 122 -48.5 240t-135.5 206q-86 86 -200 133.5t-236 47.5q-126 0 -241 -48t-202 -137q-89 -90 -135.5 -203t-46.5 -239zM467 287v46q64 4 88.5 24.5 t24.5 72.5v520q0 52 -23.5 72t-89.5 25v49h399q145 0 232.5 -55t87.5 -142q0 -84 -65.5 -133t-217.5 -76q96 -25 147.5 -73t69.5 -127q6 -24 10 -67q9 -91 54 -91q29 0 44 34t15 99h49v-23q0 -85 -43 -129.5t-127 -44.5q-46 0 -80 14.5t-53 43.5q-24 39 -27 111.5t-8 93.5 q-16 74 -60.5 109.5t-121.5 35.5h-24v-246q0 -49 22.5 -69.5t85.5 -26.5v-47h-389zM748 723q14 -1 27 -1.5t26 -0.5q100 0 154.5 44t54.5 126q0 70 -46.5 114t-121.5 44q-47 0 -70.5 -17.5t-23.5 -50.5v-258z" />
<glyph unicode="&#xaf;" horiz-adv-x="1024" d="M231 1141v145h562v-145h-562z" />
<glyph unicode="&#xb0;" horiz-adv-x="674" d="M43 1163q0 125 86 211t209 86t209 -87t86 -210q0 -121 -87 -208t-210 -87t-208 85.5t-85 209.5zM152 1165q0 -76 54.5 -131t131.5 -55t130.5 54.5t53.5 131.5t-53.5 131t-130.5 54t-131.5 -54t-54.5 -131z" />
<glyph unicode="&#xb1;" horiz-adv-x="1706" d="M254 14v168h1198v-168h-1198zM254 707v165h514v334h170v-334h514v-165h-514v-334h-170v334h-514z" />
<glyph unicode="&#xb2;" horiz-adv-x="797" d="M62 551q6 62 52 130.5t119 123.5q30 22 85 60q186 128 186 237q0 79 -54.5 131.5t-138.5 52.5q-55 0 -103.5 -23.5t-78.5 -66.5q-8 -12 -19 -33q-12 -26 -24 -26q-5 0 -7.5 3t-2.5 11q0 23 14 56.5t39 64.5q46 59 116.5 91t155.5 32q130 0 205.5 -64t75.5 -174 q0 -89 -50 -151t-175 -121l-33 -15q-187 -83 -244 -170h336q46 0 71 6.5t44 20.5q8 7 20.5 25t22.5 18q5 0 8.5 -3.5t3.5 -8.5q0 -4 -27.5 -71t-44.5 -136h-552z" />
<glyph unicode="&#xb3;" horiz-adv-x="797" d="M37 694q0 39 23 60.5t63 21.5q37 0 66 -25.5t44 -72.5q19 -63 51.5 -89t90.5 -26q79 0 124.5 43t45.5 119q0 77 -36 136t-101 89q-36 17 -79.5 21.5t-43.5 11.5q0 10 25.5 13t37.5 10q45 19 71.5 58.5t26.5 84.5q0 61 -44.5 101t-112.5 40q-45 0 -81.5 -17.5t-58.5 -50.5 q-1 -1 -3 -4q-11 -14 -19 -14q-5 0 -9.5 4t-4.5 9q0 14 23.5 49.5t56.5 62.5q39 32 89.5 49t104.5 17q109 0 175.5 -56.5t66.5 -150.5q0 -43 -17 -76t-53 -61q67 -36 105 -92.5t38 -120.5q0 -140 -103.5 -221.5t-281.5 -81.5q-121 0 -200.5 46t-79.5 113z" />
<glyph unicode="&#xb4;" horiz-adv-x="1024" d="M319 1044l283 299q42 44 69.5 60t55.5 16q37 0 63.5 -26t26.5 -64q0 -28 -19 -51t-63 -47l-327 -187h-89z" />
<glyph unicode="&#xb5;" horiz-adv-x="1184" d="M-109 -319q0 52 69 282.5t108 409.5l108 512h207l-100 -467q-10 -46 -15.5 -82t-5.5 -57q0 -64 37 -101t102 -37q87 0 139 53.5t76 167.5l111 523h209l-113 -533l-3 -15q-15 -70 -15 -110q0 -42 22.5 -66t63.5 -24q40 0 71 21.5t58 68.5q9 17 23 49q25 60 51 60 q11 0 16.5 -7.5t5.5 -23.5q0 -28 -17 -85.5t-40 -100.5q-41 -72 -95.5 -108t-123.5 -36q-84 0 -129.5 55t-47.5 156q-42 -104 -109.5 -157.5t-156.5 -53.5q-99 0 -156.5 58t-68.5 168q-23 -124 -48 -315q-39 -306 -134 -306q-47 0 -73 26.5t-26 74.5z" />
<glyph unicode="&#xb6;" horiz-adv-x="1024" d="M55 1130q0 158 107 253.5t284 95.5h523v-99h-117v-1380h-129v1380h-168v-1380h-131v784q-168 6 -268.5 101t-100.5 245z" />
<glyph unicode="&#xb7;" horiz-adv-x="604" d="M143 709q0 64 46.5 110.5t111.5 46.5q66 0 113 -46t47 -111q0 -66 -47.5 -113t-112.5 -47q-63 0 -110.5 48t-47.5 112z" />
<glyph unicode="&#xb8;" horiz-adv-x="1024" d="M262 -375l41 90q62 -35 122 -54t112 -19q49 0 75.5 21.5t26.5 62.5q0 40 -27.5 63t-74.5 23q-9 0 -25 -2t-37 -4l-2 194h76v-112q24 2 42.5 3.5t31.5 2.5q79 0 126.5 -47t47.5 -126t-60.5 -127.5t-163.5 -48.5q-60 0 -130.5 18t-180.5 62z" />
<glyph unicode="&#xb9;" horiz-adv-x="799" d="M129 1284q0 13 56 20q45 5 78 11q113 19 201 68q21 12 25 12q8 0 11.5 -5.5t3.5 -17.5v-702q0 -51 29 -71.5t114 -20.5q12 0 18.5 -4.5t6.5 -12.5q0 -6 -6.5 -9t-18.5 -3h-479q-21 0 -28 4t-7 12q0 6 8.5 9.5t24.5 3.5q99 0 127.5 21.5t28.5 74.5v551q0 32 -9.5 39.5 t-46.5 7.5h-114q-12 0 -17.5 3.5t-5.5 8.5z" />
<glyph unicode="&#xba;" horiz-adv-x="862" d="M53 1063q0 147 105.5 241.5t271.5 94.5q167 0 273 -94.5t106 -241.5q0 -148 -106 -243t-273 -95q-166 0 -271.5 94.5t-105.5 243.5zM262 1063q0 -157 41.5 -233t126.5 -76q86 0 128 76.5t42 232.5t-42 232.5t-128 76.5q-85 0 -126.5 -76t-41.5 -233z" />
<glyph unicode="&#xbb;" horiz-adv-x="891" d="M92 815q0 9 5.5 15.5t15.5 7.5q4 0 8.5 -2t7.5 -5l356 -360q8 -7 11.5 -12t3.5 -8q0 -7 -3.5 -13.5t-11.5 -13.5l-350 -342q-7 -5 -11 -6.5t-7 -1.5q-9 0 -15 5.5t-6 12.5q0 4 2 9q2 4 2 5l195 345l-197 344q-2 3 -4 9.5t-2 10.5zM393 815q0 9 5.5 15.5t15.5 7.5 q5 0 9 -2t7 -5l356 -360q8 -7 11.5 -12t3.5 -8q0 -7 -3.5 -13.5t-11.5 -13.5l-352 -342q-1 -1 -4 -3q-7 -5 -12 -5q-9 0 -15 5.5t-6 12.5q0 3 1 6t3 8l195 345l-197 344q-3 5 -4.5 10t-1.5 10z" />
<glyph unicode="&#xbc;" horiz-adv-x="1866" d="M123 1290q0 11 51 18q46 5 78 11q104 19 190 64q22 12 27 12q6 0 10 -6t4 -15v-657q0 -48 28 -67t107 -19q13 0 19 -4t6 -11q0 -6 -6 -9t-19 -3h-456q-21 0 -28 3.5t-7 10.5t7 10t26 3q93 0 120 20t27 70v514q0 31 -9 38t-42 7h-111q-11 0 -16.5 2.5t-5.5 7.5zM420 -29 l934 1436h90l-932 -1436h-92zM1151 272l422 516h96v-495h139l-30 -68h-109v-90q0 -47 9 -67.5t30 -30.5q15 -6 41.5 -9.5t26.5 -15.5q0 -6 -5 -9t-18 -3h-336q-13 0 -17.5 3t-4.5 9q0 13 27.5 16.5t39.5 8.5q20 9 28.5 28.5t8.5 69.5v90h-319zM1219 293h282l8 354z" />
<glyph unicode="&#xbd;" horiz-adv-x="1866" d="M123 1290q0 11 51 18q46 5 78 11q104 19 190 64q22 12 27 12q6 0 10 -6t4 -15v-657q0 -48 28 -67t107 -19q13 0 19 -4t6 -11q0 -6 -6 -9t-19 -3h-456q-21 0 -28 3.5t-7 10.5t7 10t26 3q93 0 120 20t27 70v514q0 31 -9 38t-42 7h-111q-11 0 -16.5 2.5t-5.5 7.5zM420 -29 l934 1436h90l-932 -1436h-92zM1164 0q4 57 48 122t113 116q27 19 77 52q181 120 181 224q0 74 -51.5 123t-130.5 49q-53 0 -99 -22t-75 -62q-7 -10 -17 -30q-12 -25 -24 -25q-5 0 -7.5 3.5t-2.5 10.5q0 20 14 51t37 60q44 56 111 86t149 30q123 0 195.5 -60t72.5 -163 q0 -83 -48 -140.5t-167 -113.5q-14 -6 -43 -19q-170 -75 -221 -153h321q45 0 68.5 6t40.5 21q9 7 20.5 23t20.5 16q5 0 7.5 -3t2.5 -7q0 -5 -25 -68t-40 -127h-528z" />
<glyph unicode="&#xbe;" horiz-adv-x="1864" d="M35 739q0 37 21.5 57.5t60.5 20.5q37 0 64.5 -24t39.5 -68q19 -59 50.5 -83t86.5 -24q77 0 119.5 40t42.5 112q0 71 -34 125.5t-97 83.5q-33 16 -75 20t-42 11q1 9 25 12t37 8q42 19 67 56t25 79q0 57 -43.5 94t-108.5 37q-43 0 -77 -16t-56 -47q-1 -2 -3 -5 q-9 -14 -17 -14q-5 0 -8.5 4t-3.5 11q0 13 22 45.5t51 56.5q39 31 87 47.5t102 16.5q102 0 165.5 -53t63.5 -140q0 -41 -16 -73t-49 -58q63 -30 100 -83t37 -114q0 -130 -99.5 -207t-269.5 -77q-116 0 -192 43.5t-76 105.5zM420 -29l934 1436h90l-932 -1436h-92zM1151 272 l422 516h96v-495h139l-30 -68h-109v-90q0 -47 9 -67.5t30 -30.5q15 -6 41.5 -9.5t26.5 -15.5q0 -6 -5 -9t-18 -3h-336q-13 0 -17.5 3t-4.5 9q0 13 27.5 16.5t39.5 8.5q20 9 28.5 28.5t8.5 69.5v90h-319zM1219 293h282l8 354z" />
<glyph unicode="&#xbf;" horiz-adv-x="967" d="M66 412q0 179 109.5 300.5t266.5 121.5q11 0 27 -2t57 -9l-8 97v20q0 17 8.5 25t26.5 8q32 0 66 -137.5t96 -266.5l-99 -63q-47 38 -97.5 58t-100.5 20q-116 0 -192 -75.5t-76 -191.5q0 -119 78.5 -200.5t189.5 -81.5q54 0 95.5 23.5t66.5 68.5q16 29 29 72.5t15 49.5 q27 63 65.5 91.5t96.5 28.5q49 0 81 -38t32 -95q0 -112 -111 -188.5t-282 -76.5q-194 0 -317 123.5t-123 317.5zM373 1249q0 66 47 112t112 46q63 0 110.5 -47.5t47.5 -110.5q0 -65 -46 -112t-112 -47t-112.5 46t-46.5 113z" />
<glyph unicode="&#xc0;" horiz-adv-x="1333" d="M-109 18q0 17 44 34q18 7 29 12q90 43 157 130.5t129 247.5l264 678q-9 27 -39.5 45.5t-30.5 30.5q0 5 51 46t91 93q19 27 40 64q20 37 38 37q11 0 20.5 -11.5t28.5 -54.5l473 -1177q22 -56 49 -88t62 -44q7 -2 25 -7q50 -13 50 -34q0 -10 -8.5 -15t-26.5 -5h-544 q-20 0 -28.5 5t-8.5 15q0 19 73.5 35t73.5 70q0 14 -4.5 32.5t-13.5 40.5l-115 302h-446l-50 -138q-11 -31 -16.5 -62t-5.5 -62q0 -61 26.5 -108.5t72.5 -66.5q12 -5 37 -11q44 -12 44 -29q0 -12 -7.5 -17.5t-25.5 -5.5h-475q-18 0 -25.5 4t-7.5 14zM340 545h412l-207 536z M363 1802q0 38 26.5 64t63.5 26q28 0 55.5 -16t69.5 -60l283 -299h-89l-327 187q-46 26 -64 48.5t-18 49.5z" />
<glyph unicode="&#xc1;" horiz-adv-x="1333" d="M-109 18q0 17 44 34q18 7 29 12q90 43 157 130.5t129 247.5l264 678q-9 27 -39.5 45.5t-30.5 30.5q0 5 51 46t91 93q19 27 40 64q20 37 38 37q11 0 20.5 -11.5t28.5 -54.5l473 -1177q22 -56 49 -88t62 -44q7 -2 25 -7q50 -13 50 -34q0 -10 -8.5 -15t-26.5 -5h-544 q-20 0 -28.5 5t-8.5 15q0 19 73.5 35t73.5 70q0 14 -4.5 32.5t-13.5 40.5l-115 302h-446l-50 -138q-11 -31 -16.5 -62t-5.5 -62q0 -61 26.5 -108.5t72.5 -66.5q12 -5 37 -11q44 -12 44 -29q0 -12 -7.5 -17.5t-25.5 -5.5h-475q-18 0 -25.5 4t-7.5 14zM340 545h412l-207 536z M475 1517l283 299q42 44 69.5 60t55.5 16q37 0 63.5 -26t26.5 -64q0 -28 -19 -51t-63 -47l-327 -187h-89z" />
<glyph unicode="&#xc2;" horiz-adv-x="1333" d="M-109 18q0 17 44 34q18 7 29 12q90 43 157 130.5t129 247.5l264 678q-9 27 -39.5 45.5t-30.5 30.5q0 5 51 46t91 93q19 27 40 64q20 37 38 37q11 0 20.5 -11.5t28.5 -54.5l473 -1177q22 -56 49 -88t62 -44q7 -2 25 -7q50 -13 50 -34q0 -10 -8.5 -15t-26.5 -5h-544 q-20 0 -28.5 5t-8.5 15q0 19 73.5 35t73.5 70q0 14 -4.5 32.5t-13.5 40.5l-115 302h-446l-50 -138q-11 -31 -16.5 -62t-5.5 -62q0 -61 26.5 -108.5t72.5 -66.5q12 -5 37 -11q44 -12 44 -29q0 -12 -7.5 -17.5t-25.5 -5.5h-475q-18 0 -25.5 4t-7.5 14zM340 545h412l-207 536z M363 1517l231 359h148l231 -359h-78l-227 193l-227 -193h-78z" />
<glyph unicode="&#xc3;" horiz-adv-x="1333" d="M-109 18q0 17 44 34q18 7 29 12q90 43 157 130.5t129 247.5l264 678q-9 27 -39.5 45.5t-30.5 30.5q0 5 51 46t91 93q19 27 40 64q20 37 38 37q11 0 20.5 -11.5t28.5 -54.5l473 -1177q22 -56 49 -88t62 -44q7 -2 25 -7q50 -13 50 -34q0 -10 -8.5 -15t-26.5 -5h-544 q-20 0 -28.5 5t-8.5 15q0 19 73.5 35t73.5 70q0 14 -4.5 32.5t-13.5 40.5l-115 302h-446l-50 -138q-11 -31 -16.5 -62t-5.5 -62q0 -61 26.5 -108.5t72.5 -66.5q12 -5 37 -11q44 -12 44 -29q0 -12 -7.5 -17.5t-25.5 -5.5h-475q-18 0 -25.5 4t-7.5 14zM340 545h412l-207 536z M363 1556q22 121 74.5 179.5t138.5 58.5q15 0 33 -2.5t36 -7.5l115 -31q12 -4 25 -6t26 -2q36 0 58 21t37 69h67q-23 -118 -76 -176t-137 -58q-14 0 -30.5 2.5t-39.5 8.5l-110 28q-14 5 -29 7t-33 2q-33 0 -55 -23t-35 -70h-65z" />
<glyph unicode="&#xc4;" horiz-adv-x="1333" d="M-109 18q0 17 44 34q18 7 29 12q90 43 157 130.5t129 247.5l264 678q-9 27 -39.5 45.5t-30.5 30.5q0 5 51 46t91 93q19 27 40 64q20 37 38 37q11 0 20.5 -11.5t28.5 -54.5l473 -1177q22 -56 49 -88t62 -44q7 -2 25 -7q50 -13 50 -34q0 -10 -8.5 -15t-26.5 -5h-544 q-20 0 -28.5 5t-8.5 15q0 19 73.5 35t73.5 70q0 14 -4.5 32.5t-13.5 40.5l-115 302h-446l-50 -138q-11 -31 -16.5 -62t-5.5 -62q0 -61 26.5 -108.5t72.5 -66.5q12 -5 37 -11q44 -12 44 -29q0 -12 -7.5 -17.5t-25.5 -5.5h-475q-18 0 -25.5 4t-7.5 14zM340 545h412l-207 536z M363 1687q0 48 36.5 83.5t84.5 35.5t83 -35t35 -84q0 -51 -33.5 -85.5t-84.5 -34.5t-86 35t-35 85zM731 1687q0 48 36.5 83.5t84.5 35.5q49 0 84 -35t35 -84q0 -51 -34 -85.5t-85 -34.5q-49 0 -85 35t-36 85z" />
<glyph unicode="&#xc5;" horiz-adv-x="1333" d="M-109 18q0 17 41 30q19 7 29 11q89 40 157 128.5t132 248.5l264 662q-9 27 -39.5 45t-30.5 31q0 5 51 45.5t91 93.5q20 27 41 65q20 37 37 37q20 0 48 -66l1 -1l473 -1160q22 -54 49 -85t62 -42q7 -2 22 -6q53 -15 53 -37q0 -9 -8 -13.5t-27 -4.5h-544q-20 0 -28.5 5 t-8.5 15q0 19 73.5 33.5t73.5 67.5q0 15 -4.5 33.5t-13.5 41.5l-115 296h-446l-50 -136q-12 -35 -17 -59.5t-5 -46.5q0 -73 24 -119t75 -68q12 -5 38 -12q43 -11 43 -28q0 -12 -7.5 -17.5t-25.5 -5.5h-475q-18 0 -25.5 4t-7.5 14zM340 537h412l-207 526zM379 1733 q0 97 72.5 168t173.5 71q103 0 174 -72.5t71 -179.5q0 -100 -72.5 -169.5t-179.5 -69.5q-100 0 -169.5 72.5t-69.5 179.5zM492 1726q0 -55 38.5 -94t94.5 -39q54 0 93.5 39t39.5 92q0 57 -39 96.5t-94 39.5q-56 0 -94.5 -39t-38.5 -95z" />
<glyph unicode="&#xc6;" horiz-adv-x="1954" d="M-225 18q0 21 57 35q33 8 51 15q78 28 167 121.5t181 244.5l416 680q34 56 43.5 83t9.5 52q0 57 -77.5 74.5t-77.5 34.5q0 11 8.5 16.5t28.5 5.5h1126l141 -442q1 -2 1.5 -3.5t0.5 -2.5q0 -9 -6 -16t-14 -7q-15 0 -56 83t-96 147q-85 102 -202.5 149t-286.5 47h-60v-596 h33q92 0 166 44t107 118q17 39 26 97.5t25 58.5q10 0 16 -7t6 -20v-649q0 -14 -5.5 -22.5t-14.5 -8.5q-19 0 -29 59t-26 99q-38 88 -111 137t-166 49h-27v-467q0 -114 34 -148t124 -34q158 0 290 80t214 225q27 49 49.5 121t40.5 72q9 0 15 -6t6 -15v-6l-113 -516h-1063 q-27 0 -35 5.5t-8 19.5q0 19 39.5 26.5t57.5 16.5q35 18 50 52.5t15 123.5v450h-406l-166 -274q-30 -52 -47.5 -105.5t-17.5 -93.5q0 -54 26.5 -100t58.5 -55q17 -5 45 -11q60 -14 60 -35q0 -10 -9.5 -15t-29.5 -5h-546q-21 0 -30 4.5t-9 13.5zM467 737h379v598h-12z" />
<glyph unicode="&#xc7;" horiz-adv-x="1452" d="M90 682q0 143 51 274t146 230q103 108 231.5 164.5t269.5 56.5q129 0 270.5 -54.5t155.5 -54.5q46 0 59 51.5t30 51.5q16 0 23 -38.5t7 -158.5q0 -34 -1 -146.5t-1 -191.5q0 -24 -5 -33.5t-17 -9.5q-17 0 -37.5 84t-57.5 156q-71 139 -179.5 219t-225.5 80 q-196 0 -296.5 -179.5t-100.5 -529.5q0 -305 98 -470t281 -165q129 0 245 76t187 207q38 70 57.5 157t38.5 87q10 0 15 -8.5t4 -28.5q0 -108 -2.5 -244t-2.5 -164v-59q0 -36 -4.5 -46.5t-17.5 -10.5q-12 0 -33 46t-55 46q-16 0 -160 -52.5t-277 -52.5q-300 0 -498 202 t-198 509zM493 -375l41 90q62 -35 122 -54t112 -19q49 0 75.5 21.5t26.5 62.5q0 40 -27.5 63t-74.5 23q-9 0 -25 -2t-37 -4l-2 194h76v-112q24 2 42.5 3.5t31.5 2.5q79 0 126.5 -47t47.5 -126t-60.5 -127.5t-163.5 -48.5q-60 0 -130.5 18t-180.5 62z" />
<glyph unicode="&#xc8;" horiz-adv-x="1335" d="M66 25q0 19 39 27t56 15q37 19 51.5 53.5t14.5 123.5v942q0 48 -20.5 81.5t-59.5 49.5q-13 5 -38 9q-43 7 -43 28q0 14 9.5 20t33.5 6h981l139 -442q0 -2 1 -4l1 -2q0 -9 -6 -16t-15 -7q-14 0 -55 83t-96 147q-86 102 -203 149t-285 47h-59v-581h31q92 0 166.5 43.5 t107.5 117.5q17 39 26 96.5t25 57.5q11 0 17 -6.5t5 -18.5v-649q0 -13 -6 -21.5t-16 -8.5q-19 0 -27.5 58.5t-25.5 98.5q-37 88 -111 137.5t-167 49.5h-25v-482q0 -114 34 -148t124 -34q157 0 288.5 80t212.5 225q28 49 51 121t42 72q9 0 14.5 -6t5.5 -15v-6l-113 -516 h-1062q-27 0 -35 5.5t-8 19.5zM363 1802q0 38 26.5 64t63.5 26q28 0 55.5 -16t69.5 -60l283 -299h-89l-327 187q-46 26 -64 48.5t-18 49.5z" />
<glyph unicode="&#xc9;" horiz-adv-x="1335" d="M66 25q0 19 39 27t56 15q37 19 51.5 53.5t14.5 123.5v942q0 48 -20.5 81.5t-59.5 49.5q-13 5 -38 9q-43 7 -43 28q0 14 9.5 20t33.5 6h981l139 -442q0 -2 1 -4l1 -2q0 -9 -6 -16t-15 -7q-14 0 -55 83t-96 147q-86 102 -203 149t-285 47h-59v-581h31q92 0 166.5 43.5 t107.5 117.5q17 39 26 96.5t25 57.5q11 0 17 -6.5t5 -18.5v-649q0 -13 -6 -21.5t-16 -8.5q-19 0 -27.5 58.5t-25.5 98.5q-37 88 -111 137.5t-167 49.5h-25v-482q0 -114 34 -148t124 -34q157 0 288.5 80t212.5 225q28 49 51 121t42 72q9 0 14.5 -6t5.5 -15v-6l-113 -516 h-1062q-27 0 -35 5.5t-8 19.5zM475 1517l283 299q42 44 69.5 60t55.5 16q37 0 63.5 -26t26.5 -64q0 -28 -19 -51t-63 -47l-327 -187h-89z" />
<glyph unicode="&#xca;" horiz-adv-x="1335" d="M66 25q0 19 39 27t56 15q37 19 51.5 53.5t14.5 123.5v942q0 48 -20.5 81.5t-59.5 49.5q-13 5 -38 9q-43 7 -43 28q0 14 9.5 20t33.5 6h981l139 -442q0 -2 1 -4l1 -2q0 -9 -6 -16t-15 -7q-14 0 -55 83t-96 147q-86 102 -203 149t-285 47h-59v-581h31q92 0 166.5 43.5 t107.5 117.5q17 39 26 96.5t25 57.5q11 0 17 -6.5t5 -18.5v-649q0 -13 -6 -21.5t-16 -8.5q-19 0 -27.5 58.5t-25.5 98.5q-37 88 -111 137.5t-167 49.5h-25v-482q0 -114 34 -148t124 -34q157 0 288.5 80t212.5 225q28 49 51 121t42 72q9 0 14.5 -6t5.5 -15v-6l-113 -516 h-1062q-27 0 -35 5.5t-8 19.5zM363 1517l231 359h148l231 -359h-78l-227 193l-227 -193h-78z" />
<glyph unicode="&#xcb;" horiz-adv-x="1335" d="M66 25q0 19 39 27t56 15q37 19 51.5 53.5t14.5 123.5v942q0 48 -20.5 81.5t-59.5 49.5q-13 5 -38 9q-43 7 -43 28q0 14 9.5 20t33.5 6h981l139 -442q0 -2 1 -4l1 -2q0 -9 -6 -16t-15 -7q-14 0 -55 83t-96 147q-86 102 -203 149t-285 47h-59v-581h31q92 0 166.5 43.5 t107.5 117.5q17 39 26 96.5t25 57.5q11 0 17 -6.5t5 -18.5v-649q0 -13 -6 -21.5t-16 -8.5q-19 0 -27.5 58.5t-25.5 98.5q-37 88 -111 137.5t-167 49.5h-25v-482q0 -114 34 -148t124 -34q157 0 288.5 80t212.5 225q28 49 51 121t42 72q9 0 14.5 -6t5.5 -15v-6l-113 -516 h-1062q-27 0 -35 5.5t-8 19.5zM363 1687q0 48 36.5 83.5t84.5 35.5t83 -35t35 -84q0 -51 -33.5 -85.5t-84.5 -34.5t-86 35t-35 85zM731 1687q0 48 36.5 83.5t84.5 35.5q49 0 84 -35t35 -84q0 -51 -34 -85.5t-85 -34.5q-49 0 -85 35t-36 85z" />
<glyph unicode="&#xcc;" horiz-adv-x="772" d="M78 25q0 19 38.5 27t56.5 16q35 18 50 52.5t15 123.5v942q0 49 -20 82t-58 49q-14 5 -39 9q-43 8 -43 28q0 14 9.5 20t33.5 6h532q23 0 32 -6t9 -20q0 -19 -38.5 -26t-57.5 -17q-35 -19 -49 -52t-14 -124v-891q0 -91 14 -124.5t50 -52.5q16 -8 55.5 -15.5t39.5 -26.5 q0 -15 -7.5 -20t-33.5 -5h-532q-27 0 -35 5.5t-8 19.5zM82 1802q0 38 26.5 64t63.5 26q28 0 55.5 -16t69.5 -60l283 -299h-89l-327 187q-46 26 -64 48.5t-18 49.5z" />
<glyph unicode="&#xcd;" horiz-adv-x="772" d="M78 25q0 19 38.5 27t56.5 16q35 18 50 52.5t15 123.5v942q0 49 -20 82t-58 49q-14 5 -39 9q-43 8 -43 28q0 14 9.5 20t33.5 6h532q23 0 32 -6t9 -20q0 -19 -38.5 -26t-57.5 -17q-35 -19 -49 -52t-14 -124v-891q0 -91 14 -124.5t50 -52.5q16 -8 55.5 -15.5t39.5 -26.5 q0 -15 -7.5 -20t-33.5 -5h-532q-27 0 -35 5.5t-8 19.5zM194 1517l283 299q42 44 69.5 60t55.5 16q37 0 63.5 -26t26.5 -64q0 -28 -19 -51t-63 -47l-327 -187h-89z" />
<glyph unicode="&#xce;" horiz-adv-x="772" d="M78 25q0 19 38.5 27t56.5 16q35 18 50 52.5t15 123.5v942q0 49 -20 82t-58 49q-14 5 -39 9q-43 8 -43 28q0 14 9.5 20t33.5 6h532q23 0 32 -6t9 -20q0 -19 -38.5 -26t-57.5 -17q-35 -19 -49 -52t-14 -124v-891q0 -91 14 -124.5t50 -52.5q16 -8 55.5 -15.5t39.5 -26.5 q0 -15 -7.5 -20t-33.5 -5h-532q-27 0 -35 5.5t-8 19.5zM82 1517l231 359h148l231 -359h-78l-227 193l-227 -193h-78z" />
<glyph unicode="&#xcf;" horiz-adv-x="772" d="M78 25q0 19 38.5 27t56.5 16q35 18 50 52.5t15 123.5v942q0 49 -20 82t-58 49q-14 5 -39 9q-43 8 -43 28q0 14 9.5 20t33.5 6h532q23 0 32 -6t9 -20q0 -19 -38.5 -26t-57.5 -17q-35 -19 -49 -52t-14 -124v-891q0 -91 14 -124.5t50 -52.5q16 -8 55.5 -15.5t39.5 -26.5 q0 -15 -7.5 -20t-33.5 -5h-532q-27 0 -35 5.5t-8 19.5zM82 1687q0 48 36.5 83.5t84.5 35.5t83 -35t35 -84q0 -51 -33.5 -85.5t-84.5 -34.5t-86 35t-35 85zM450 1687q0 48 36.5 83.5t84.5 35.5q49 0 84 -35t35 -84q0 -51 -34 -85.5t-85 -34.5q-49 0 -85 35t-36 85z" />
<glyph unicode="&#xd0;" horiz-adv-x="1503" d="M0 698v64h227v424q0 48 -20.5 81.5t-59.5 49.5q-13 5 -38 9q-43 7 -43 28q0 14 9.5 20t33.5 6h483q161 0 258 -15.5t184 -51.5q178 -75 281.5 -248t103.5 -395q0 -179 -72.5 -326.5t-203.5 -237.5q-83 -55 -193 -80.5t-278 -25.5h-563q-27 0 -35 5.5t-8 19.5 q0 19 39 26.5t56 15.5q37 19 51.5 53.5t14.5 123.5v454h-227zM512 340q0 -181 44 -238t155 -57q194 0 292.5 145.5t98.5 432.5q0 354 -114.5 530t-344.5 176q-26 0 -70.5 -2.5t-60.5 -3.5v-561h246v-64h-246v-358z" />
<glyph unicode="&#xd1;" horiz-adv-x="1425" d="M-25 1358q1 12 9.5 17t27.5 5h416l725 -954l2 535q0 152 -33 233t-108 117q-22 10 -62.5 20t-40.5 29q0 10 8 15t23 5h453q14 0 22 -5t8 -15q0 -17 -38.5 -28t-56.5 -21q-69 -35 -99.5 -117.5t-30.5 -235.5l-4 -962q0 -11 -4 -18t-10 -7t-12 3t-9 8l-889 1151l2 -680 q0 -182 28.5 -263.5t96.5 -117.5q22 -12 67.5 -21.5t45.5 -30.5q0 -10 -7.5 -15t-25.5 -5h-461q-17 0 -24.5 5t-7.5 15q0 20 43 30t63 20q70 37 99.5 119.5t31.5 262.5l4 717l-73 86q-46 53 -112.5 69.5t-66.5 33.5zM408 1556q22 121 74.5 179.5t138.5 58.5q15 0 33 -2.5 t36 -7.5l115 -31q12 -4 25 -6t26 -2q36 0 58 21t37 69h67q-23 -118 -76 -176t-137 -58q-14 0 -30.5 2.5t-39.5 8.5l-110 28q-14 5 -29 7t-33 2q-33 0 -55 -23t-35 -70h-65z" />
<glyph unicode="&#xd2;" horiz-adv-x="1593" d="M76 690q0 312 203.5 514.5t517.5 202.5q312 0 515.5 -202.5t203.5 -514.5q0 -311 -203.5 -515t-515.5 -204q-129 0 -241 36.5t-206 109.5q-132 101 -203 249.5t-71 323.5zM397 690q0 -328 103 -501t297 -173q193 0 295 173t102 501t-102.5 501t-294.5 173 q-194 0 -297 -173t-103 -501zM492 1802q0 38 26.5 64t63.5 26q28 0 55.5 -16t69.5 -60l283 -299h-89l-327 187q-46 26 -64 48.5t-18 49.5z" />
<glyph unicode="&#xd3;" horiz-adv-x="1593" d="M76 690q0 312 203.5 514.5t517.5 202.5q312 0 515.5 -202.5t203.5 -514.5q0 -311 -203.5 -515t-515.5 -204q-129 0 -241 36.5t-206 109.5q-132 101 -203 249.5t-71 323.5zM397 690q0 -328 103 -501t297 -173q193 0 295 173t102 501t-102.5 501t-294.5 173 q-194 0 -297 -173t-103 -501zM604 1517l283 299q42 44 69.5 60t55.5 16q37 0 63.5 -26t26.5 -64q0 -28 -19 -51t-63 -47l-327 -187h-89z" />
<glyph unicode="&#xd4;" horiz-adv-x="1593" d="M76 690q0 312 203.5 514.5t517.5 202.5q312 0 515.5 -202.5t203.5 -514.5q0 -311 -203.5 -515t-515.5 -204q-129 0 -241 36.5t-206 109.5q-132 101 -203 249.5t-71 323.5zM397 690q0 -328 103 -501t297 -173q193 0 295 173t102 501t-102.5 501t-294.5 173 q-194 0 -297 -173t-103 -501zM492 1517l231 359h148l231 -359h-78l-227 193l-227 -193h-78z" />
<glyph unicode="&#xd5;" horiz-adv-x="1593" d="M76 690q0 312 203.5 514.5t517.5 202.5q312 0 515.5 -202.5t203.5 -514.5q0 -311 -203.5 -515t-515.5 -204q-129 0 -241 36.5t-206 109.5q-132 101 -203 249.5t-71 323.5zM397 690q0 -328 103 -501t297 -173q193 0 295 173t102 501t-102.5 501t-294.5 173 q-194 0 -297 -173t-103 -501zM492 1556q22 121 74.5 179.5t138.5 58.5q15 0 33 -2.5t36 -7.5l115 -31q12 -4 25 -6t26 -2q36 0 58 21t37 69h67q-23 -118 -76 -176t-137 -58q-14 0 -30.5 2.5t-39.5 8.5l-110 28q-14 5 -29 7t-33 2q-33 0 -55 -23t-35 -70h-65z" />
<glyph unicode="&#xd6;" horiz-adv-x="1593" d="M76 690q0 312 203.5 514.5t517.5 202.5q312 0 515.5 -202.5t203.5 -514.5q0 -311 -203.5 -515t-515.5 -204q-129 0 -241 36.5t-206 109.5q-132 101 -203 249.5t-71 323.5zM397 690q0 -328 103 -501t297 -173q193 0 295 173t102 501t-102.5 501t-294.5 173 q-194 0 -297 -173t-103 -501zM492 1687q0 48 36.5 83.5t84.5 35.5t83 -35t35 -84q0 -51 -33.5 -85.5t-84.5 -34.5t-86 35t-35 85zM860 1687q0 48 36.5 83.5t84.5 35.5q49 0 84 -35t35 -84q0 -51 -34 -85.5t-85 -34.5q-49 0 -85 35t-36 85z" />
<glyph unicode="&#xd7;" horiz-adv-x="1706" d="M287 152l458 458l-458 461l116 117l459 -459l461 459l117 -117l-459 -461l459 -458l-117 -119l-461 461l-459 -461z" />
<glyph unicode="&#xd8;" horiz-adv-x="1593" d="M76 690q0 180 78 334.5t219 255.5q87 63 191.5 95t221.5 32q97 0 174.5 -15t143.5 -46l86 161h86l-102 -194q161 -95 251.5 -259.5t90.5 -363.5q0 -180 -77.5 -334.5t-217.5 -255.5q-91 -63 -196 -96t-220 -33q-84 0 -161.5 15.5t-149.5 46.5l-111 -205h-88l127 240 q-166 98 -256 260t-90 362zM399 702q0 -153 25 -270t78 -219l547 1028q-55 61 -120.5 92t-137.5 31q-186 0 -289 -173.5t-103 -488.5zM549 137q49 -59 112.5 -90t139.5 -31q183 0 287 168t104 465q0 177 -25 307.5t-73 208.5z" />
<glyph unicode="&#xd9;" horiz-adv-x="1513" d="M78 1354q0 14 9.5 20t33.5 6h532q23 0 32 -6t9 -20q0 -19 -38.5 -26t-57.5 -17q-35 -19 -49 -52t-14 -124v-754q0 -159 89.5 -252.5t237.5 -93.5q189 0 283 108t94 328v504q0 139 -29 218.5t-91 112.5q-22 12 -66.5 20t-44.5 28q0 14 9.5 20t33.5 6h419q24 0 33.5 -6 t9.5 -20q0 -21 -43.5 -28.5t-65.5 -19.5q-63 -33 -92.5 -112.5t-29.5 -218.5v-520q0 -237 -123.5 -360.5t-359.5 -123.5q-268 0 -414.5 112t-146.5 316v787q0 49 -20 82t-58 49q-14 5 -39 9q-43 8 -43 28zM522 1802q0 38 26.5 64t63.5 26q28 0 55.5 -16t69.5 -60l283 -299 h-89l-327 187q-46 26 -64 48.5t-18 49.5z" />
<glyph unicode="&#xda;" horiz-adv-x="1513" d="M78 1354q0 14 9.5 20t33.5 6h532q23 0 32 -6t9 -20q0 -19 -38.5 -26t-57.5 -17q-35 -19 -49 -52t-14 -124v-754q0 -159 89.5 -252.5t237.5 -93.5q189 0 283 108t94 328v504q0 139 -29 218.5t-91 112.5q-22 12 -66.5 20t-44.5 28q0 14 9.5 20t33.5 6h419q24 0 33.5 -6 t9.5 -20q0 -21 -43.5 -28.5t-65.5 -19.5q-63 -33 -92.5 -112.5t-29.5 -218.5v-520q0 -237 -123.5 -360.5t-359.5 -123.5q-268 0 -414.5 112t-146.5 316v787q0 49 -20 82t-58 49q-14 5 -39 9q-43 8 -43 28zM634 1517l283 299q42 44 69.5 60t55.5 16q37 0 63.5 -26t26.5 -64 q0 -28 -19 -51t-63 -47l-327 -187h-89z" />
<glyph unicode="&#xdb;" horiz-adv-x="1513" d="M78 1354q0 14 9.5 20t33.5 6h532q23 0 32 -6t9 -20q0 -19 -38.5 -26t-57.5 -17q-35 -19 -49 -52t-14 -124v-754q0 -159 89.5 -252.5t237.5 -93.5q189 0 283 108t94 328v504q0 139 -29 218.5t-91 112.5q-22 12 -66.5 20t-44.5 28q0 14 9.5 20t33.5 6h419q24 0 33.5 -6 t9.5 -20q0 -21 -43.5 -28.5t-65.5 -19.5q-63 -33 -92.5 -112.5t-29.5 -218.5v-520q0 -237 -123.5 -360.5t-359.5 -123.5q-268 0 -414.5 112t-146.5 316v787q0 49 -20 82t-58 49q-14 5 -39 9q-43 8 -43 28zM522 1517l231 359h148l231 -359h-78l-227 193l-227 -193h-78z" />
<glyph unicode="&#xdc;" horiz-adv-x="1513" d="M78 1354q0 14 9.5 20t33.5 6h532q23 0 32 -6t9 -20q0 -19 -38.5 -26t-57.5 -17q-35 -19 -49 -52t-14 -124v-754q0 -159 89.5 -252.5t237.5 -93.5q189 0 283 108t94 328v504q0 139 -29 218.5t-91 112.5q-22 12 -66.5 20t-44.5 28q0 14 9.5 20t33.5 6h419q24 0 33.5 -6 t9.5 -20q0 -21 -43.5 -28.5t-65.5 -19.5q-63 -33 -92.5 -112.5t-29.5 -218.5v-520q0 -237 -123.5 -360.5t-359.5 -123.5q-268 0 -414.5 112t-146.5 316v787q0 49 -20 82t-58 49q-14 5 -39 9q-43 8 -43 28zM522 1687q0 48 36.5 83.5t84.5 35.5t83 -35t35 -84 q0 -51 -33.5 -85.5t-84.5 -34.5t-86 35t-35 85zM890 1687q0 48 36.5 83.5t84.5 35.5q49 0 84 -35t35 -84q0 -51 -34 -85.5t-85 -34.5q-49 0 -85 35t-36 85z" />
<glyph unicode="&#xdd;" horiz-adv-x="1249" d="M-49 1358q0 12 8 17t29 5h569q19 0 27 -5t8 -17q0 -18 -66.5 -34t-66.5 -69q0 -14 6 -37.5t16 -41.5l246 -467l227 368q22 33 32.5 65t10.5 60q0 44 -23 77t-61 44q-10 3 -30 7q-37 8 -37 28q0 12 8 17t27 5h393q19 0 27 -5t8 -17q0 -18 -32 -26q-24 -6 -38 -13 q-50 -24 -113 -90.5t-120 -157.5l-250 -395v-432q0 -88 14.5 -122.5t51.5 -54.5q17 -8 56.5 -15.5t39.5 -26.5q0 -14 -8.5 -19.5t-35.5 -5.5h-509q-27 0 -35 5.5t-8 19.5q0 19 39 26.5t56 15.5q37 19 51.5 53.5t14.5 123.5v364l-309 547q-38 67 -72.5 106t-68.5 56 q-15 6 -42 12q-40 8 -40 29zM432 1517l283 299q42 44 69.5 60t55.5 16q37 0 63.5 -26t26.5 -64q0 -28 -19 -51t-63 -47l-327 -187h-89z" />
<glyph unicode="&#xde;" horiz-adv-x="1260" d="M66 25q0 19 39 26.5t56 15.5q37 19 51.5 53.5t14.5 123.5v942q0 48 -20.5 81.5t-59.5 49.5q-13 5 -38 9q-43 7 -43 28q0 14 9.5 20t33.5 6h557q21 0 28.5 -5t7.5 -19q0 -22 -51.5 -27t-75.5 -16q-34 -16 -48.5 -50t-14.5 -124v-54h150q252 0 394 -101t142 -279 q0 -184 -152.5 -285t-433.5 -101q-38 0 -59 0.5t-41 1.5v-79q0 -92 14.5 -126.5t48.5 -49.5q24 -11 75.5 -15t51.5 -26q0 -14 -8 -19.5t-28 -5.5h-557q-27 0 -35 5.5t-8 19.5zM512 365h27h47q162 0 231.5 78t69.5 264q0 182 -66.5 257.5t-234.5 75.5h-74v-675z" />
<glyph unicode="&#xdf;" horiz-adv-x="1243" d="M43 782q49 40 97 118.5t114 229.5q92 213 180.5 295t212.5 82q137 0 230.5 -92t93.5 -225q0 -86 -45.5 -149t-147.5 -117q-11 -6 -32 -17q-66 -33 -66 -59q0 -31 107 -82q84 -41 139 -72q121 -69 177 -154.5t56 -201.5q0 -161 -106 -264t-269 -103q-116 0 -189 58 t-73 147q0 57 36 95t87 38t83 -29.5t32 -76.5q0 -32 -20.5 -74t-20.5 -55q0 -25 20.5 -42.5t51.5 -17.5q57 0 80.5 54.5t23.5 205.5q0 152 -27.5 235t-95.5 150q-13 14 -43 40q-96 83 -96 143q0 52 53 117q17 21 25 32q33 47 49 102.5t16 127.5q0 112 -44 174.5t-122 62.5 q-89 0 -140.5 -67t-51.5 -185q0 -35 14 -149t14 -197v-39v-821h-337q-30 0 -40 5.5t-10 19.5q1 16 33 23q20 4 32 9q39 14 54 45.5t15 102.5v577h-150z" />
<glyph unicode="&#xe0;" horiz-adv-x="1059" d="M86 166q0 81 63 141t222 127l258 109v288q0 29 -15 42.5t-47 13.5q-67 0 -117.5 -33.5t-58.5 -85.5q-20 -135 -59.5 -186.5t-114.5 -51.5q-47 0 -75.5 28t-28.5 73t34.5 91t102.5 91q86 57 186 89t191 32q122 0 189 -55.5t67 -157.5v-578q0 -36 10 -53.5t31 -17.5 t52.5 25.5t43.5 25.5q9 -1 13.5 -5t4.5 -12q0 -28 -80.5 -81.5t-158.5 -53.5q-67 0 -111 36.5t-59 105.5q-100 -71 -180 -104.5t-150 -33.5q-95 0 -154 53t-59 138zM346 233q0 -77 25.5 -119t72.5 -42q33 0 83 25.5t102 70.5v330l-115 -52q-95 -41 -131.5 -87.5 t-36.5 -125.5zM238 1329q0 38 26.5 64t63.5 26q28 0 55.5 -16t69.5 -60l283 -299h-89l-327 187q-46 26 -64 48.5t-18 49.5z" />
<glyph unicode="&#xe1;" horiz-adv-x="1059" d="M86 166q0 81 63 141t222 127l258 109v288q0 29 -15 42.5t-47 13.5q-67 0 -117.5 -33.5t-58.5 -85.5q-20 -135 -59.5 -186.5t-114.5 -51.5q-47 0 -75.5 28t-28.5 73t34.5 91t102.5 91q86 57 186 89t191 32q122 0 189 -55.5t67 -157.5v-578q0 -36 10 -53.5t31 -17.5 t52.5 25.5t43.5 25.5q9 -1 13.5 -5t4.5 -12q0 -28 -80.5 -81.5t-158.5 -53.5q-67 0 -111 36.5t-59 105.5q-100 -71 -180 -104.5t-150 -33.5q-95 0 -154 53t-59 138zM346 233q0 -77 25.5 -119t72.5 -42q33 0 83 25.5t102 70.5v330l-115 -52q-95 -41 -131.5 -87.5 t-36.5 -125.5zM350 1044l283 299q42 44 69.5 60t55.5 16q37 0 63.5 -26t26.5 -64q0 -28 -19 -51t-63 -47l-327 -187h-89z" />
<glyph unicode="&#xe2;" horiz-adv-x="1059" d="M86 166q0 81 63 141t222 127l258 109v288q0 29 -15 42.5t-47 13.5q-67 0 -117.5 -33.5t-58.5 -85.5q-20 -135 -59.5 -186.5t-114.5 -51.5q-47 0 -75.5 28t-28.5 73t34.5 91t102.5 91q86 57 186 89t191 32q122 0 189 -55.5t67 -157.5v-578q0 -36 10 -53.5t31 -17.5 t52.5 25.5t43.5 25.5q9 -1 13.5 -5t4.5 -12q0 -28 -80.5 -81.5t-158.5 -53.5q-67 0 -111 36.5t-59 105.5q-100 -71 -180 -104.5t-150 -33.5q-95 0 -154 53t-59 138zM346 233q0 -77 25.5 -119t72.5 -42q33 0 83 25.5t102 70.5v330l-115 -52q-95 -41 -131.5 -87.5 t-36.5 -125.5zM238 1044l231 359h148l231 -359h-78l-227 193l-227 -193h-78z" />
<glyph unicode="&#xe3;" horiz-adv-x="1059" d="M86 166q0 81 63 141t222 127l258 109v288q0 29 -15 42.5t-47 13.5q-67 0 -117.5 -33.5t-58.5 -85.5q-20 -135 -59.5 -186.5t-114.5 -51.5q-47 0 -75.5 28t-28.5 73t34.5 91t102.5 91q86 57 186 89t191 32q122 0 189 -55.5t67 -157.5v-578q0 -36 10 -53.5t31 -17.5 t52.5 25.5t43.5 25.5q9 -1 13.5 -5t4.5 -12q0 -28 -80.5 -81.5t-158.5 -53.5q-67 0 -111 36.5t-59 105.5q-100 -71 -180 -104.5t-150 -33.5q-95 0 -154 53t-59 138zM346 233q0 -77 25.5 -119t72.5 -42q33 0 83 25.5t102 70.5v330l-115 -52q-95 -41 -131.5 -87.5 t-36.5 -125.5zM238 1083q22 121 74.5 179.5t138.5 58.5q15 0 33 -2.5t36 -7.5l115 -31q12 -4 25 -6t26 -2q36 0 58 21t37 69h67q-23 -118 -76 -176t-137 -58q-14 0 -30.5 2.5t-39.5 8.5l-110 28q-14 5 -29 7t-33 2q-33 0 -55 -23t-35 -70h-65z" />
<glyph unicode="&#xe4;" horiz-adv-x="1059" d="M86 166q0 81 63 141t222 127l258 109v288q0 29 -15 42.5t-47 13.5q-67 0 -117.5 -33.5t-58.5 -85.5q-20 -135 -59.5 -186.5t-114.5 -51.5q-47 0 -75.5 28t-28.5 73t34.5 91t102.5 91q86 57 186 89t191 32q122 0 189 -55.5t67 -157.5v-578q0 -36 10 -53.5t31 -17.5 t52.5 25.5t43.5 25.5q9 -1 13.5 -5t4.5 -12q0 -28 -80.5 -81.5t-158.5 -53.5q-67 0 -111 36.5t-59 105.5q-100 -71 -180 -104.5t-150 -33.5q-95 0 -154 53t-59 138zM346 233q0 -77 25.5 -119t72.5 -42q33 0 83 25.5t102 70.5v330l-115 -52q-95 -41 -131.5 -87.5 t-36.5 -125.5zM238 1214q0 48 36.5 83.5t84.5 35.5t83 -35t35 -84q0 -51 -33.5 -85.5t-84.5 -34.5t-86 35t-35 85zM606 1214q0 48 36.5 83.5t84.5 35.5q49 0 84 -35t35 -84q0 -51 -34 -85.5t-85 -34.5q-49 0 -85 35t-36 85z" />
<glyph unicode="&#xe5;" horiz-adv-x="1059" d="M84 160q0 84 63.5 146t223.5 128l258 109v288q0 29 -15 42.5t-47 13.5q-67 0 -117.5 -33.5t-58.5 -85.5q-20 -135 -59.5 -186.5t-114.5 -51.5q-47 0 -75.5 28t-28.5 73t34.5 91t102.5 91q86 57 186 89t191 32q122 0 189 -55.5t67 -157.5v-578q0 -36 10 -53.5t31 -17.5 t52.5 25.5t43.5 25.5q9 -1 13.5 -5t4.5 -12q0 -28 -80.5 -81.5t-158.5 -53.5q-67 0 -111 36.5t-59 105.5q-100 -71 -180 -104.5t-150 -33.5q-92 0 -153.5 54t-61.5 131zM317 1253q0 105 74 178.5t178 73.5q105 0 179.5 -74t74.5 -178q0 -106 -74 -180t-180 -74 q-105 0 -178.5 74t-73.5 180zM346 233q0 -77 25.5 -119t72.5 -42q33 0 83 25.5t102 70.5v330l-115 -52q-95 -41 -131.5 -87.5t-36.5 -125.5zM434 1255q0 -59 38.5 -99t94.5 -40q59 0 99.5 39t40.5 94q0 59 -40 99.5t-98 40.5q-56 0 -95.5 -39t-39.5 -95z" />
<glyph unicode="&#xe6;" horiz-adv-x="1591" d="M82 164q0 80 65.5 142.5t223.5 127.5l258 109v288q0 29 -15 42.5t-47 13.5q-67 0 -117.5 -33.5t-58.5 -85.5q-20 -135 -59.5 -186.5t-114.5 -51.5q-47 0 -75.5 27t-28.5 72q0 109 153 207t338 98q85 0 141.5 -26.5t83.5 -80.5q53 50 128 77.5t159 27.5 q171 0 281.5 -115.5t113.5 -298.5h-634q-3 -10 -3 -29q0 -150 85 -243.5t223 -93.5q84 0 151.5 28.5t106.5 81.5q10 14 22 35q15 27 27 27q8 0 11 -4.5t3 -16.5q0 -19 -16.5 -62t-42.5 -83q-58 -92 -144 -139.5t-192 -47.5q-118 0 -217.5 50.5t-167.5 144.5 q-93 -95 -197 -144t-211 -49q-103 0 -168 54t-65 137zM346 229q0 -82 31.5 -122.5t95.5 -40.5q68 0 112 41t44 106v287l-115 -51q-95 -43 -131.5 -91t-36.5 -129zM873 559h395v37q0 151 -42.5 224t-129.5 73q-95 0 -155.5 -90t-67.5 -244z" />
<glyph unicode="&#xe7;" horiz-adv-x="1014" d="M70 430q0 216 139 360t344 144q159 0 273 -93.5t114 -213.5q0 -71 -35 -114.5t-90 -43.5q-56 0 -91.5 40.5t-35.5 104.5q0 25 7 68.5t7 60.5q0 67 -42.5 108.5t-110.5 41.5q-105 0 -173.5 -95.5t-68.5 -244.5q0 -174 99 -286.5t249 -112.5q149 0 248 139q21 30 29 31 q8 0 11 -4.5t3 -16.5q0 -17 -13.5 -54t-35.5 -75q-61 -101 -153.5 -152t-215.5 -51q-192 0 -325 133t-133 326zM258 -375l41 90q62 -35 122 -54t112 -19q49 0 75.5 21.5t26.5 62.5q0 40 -27.5 63t-74.5 23q-9 0 -25 -2t-37 -4l-2 194h76v-112q24 2 42.5 3.5t31.5 2.5 q79 0 126.5 -47t47.5 -126t-60.5 -127.5t-163.5 -48.5q-60 0 -130.5 18t-180.5 62z" />
<glyph unicode="&#xe8;" horiz-adv-x="1032" d="M72 440q0 208 139 351t340 143q170 0 285.5 -116t115.5 -281q0 -1 1 -3q1 -9 1 -16h-637q8 -163 102 -263.5t236 -100.5q149 0 248 139q21 30 29 31q8 0 11 -4.5t3 -16.5q0 -17 -13.5 -54t-35.5 -75q-59 -97 -151.5 -150t-204.5 -53q-196 0 -332.5 136t-136.5 333z M315 561h394q0 13 1 25l1 12q0 148 -43.5 221.5t-130.5 73.5q-95 0 -155.5 -89.5t-66.5 -242.5zM227 1329q0 38 26.5 64t63.5 26q28 0 55.5 -16t69.5 -60l283 -299h-89l-327 187q-46 26 -64 48.5t-18 49.5z" />
<glyph unicode="&#xe9;" horiz-adv-x="1032" d="M72 440q0 208 139 351t340 143q170 0 285.5 -116t115.5 -281q0 -1 1 -3q1 -9 1 -16h-637q8 -163 102 -263.5t236 -100.5q149 0 248 139q21 30 29 31q8 0 11 -4.5t3 -16.5q0 -17 -13.5 -54t-35.5 -75q-59 -97 -151.5 -150t-204.5 -53q-196 0 -332.5 136t-136.5 333z M315 561h394q0 13 1 25l1 12q0 148 -43.5 221.5t-130.5 73.5q-95 0 -155.5 -89.5t-66.5 -242.5zM339 1044l283 299q42 44 69.5 60t55.5 16q37 0 63.5 -26t26.5 -64q0 -28 -19 -51t-63 -47l-327 -187h-89z" />
<glyph unicode="&#xea;" horiz-adv-x="1032" d="M72 440q0 208 139 351t340 143q170 0 285.5 -116t115.5 -281q0 -1 1 -3q1 -9 1 -16h-637q8 -163 102 -263.5t236 -100.5q149 0 248 139q21 30 29 31q8 0 11 -4.5t3 -16.5q0 -17 -13.5 -54t-35.5 -75q-59 -97 -151.5 -150t-204.5 -53q-196 0 -332.5 136t-136.5 333z M315 561h394q0 13 1 25l1 12q0 148 -43.5 221.5t-130.5 73.5q-95 0 -155.5 -89.5t-66.5 -242.5zM227 1044l231 359h148l231 -359h-78l-227 193l-227 -193h-78z" />
<glyph unicode="&#xeb;" horiz-adv-x="1032" d="M72 440q0 208 139 351t340 143q170 0 285.5 -116t115.5 -281q0 -1 1 -3q1 -9 1 -16h-637q8 -163 102 -263.5t236 -100.5q149 0 248 139q21 30 29 31q8 0 11 -4.5t3 -16.5q0 -17 -13.5 -54t-35.5 -75q-59 -97 -151.5 -150t-204.5 -53q-196 0 -332.5 136t-136.5 333z M315 561h394q0 13 1 25l1 12q0 148 -43.5 221.5t-130.5 73.5q-95 0 -155.5 -89.5t-66.5 -242.5zM227 1214q0 48 36.5 83.5t84.5 35.5t83 -35t35 -84q0 -51 -33.5 -85.5t-84.5 -34.5t-86 35t-35 85zM595 1214q0 48 36.5 83.5t84.5 35.5q49 0 84 -35t35 -84q0 -51 -34 -85.5 t-85 -34.5q-49 0 -85 35t-36 85z" />
<glyph unicode="&#xec;" horiz-adv-x="651" d="M57 807q0 16 137 46.5t269 80.5v-729q0 -71 15 -102.5t53 -45.5q10 -3 30 -8q35 -7 35 -24q0 -14 -9.5 -19.5t-39.5 -5.5h-455q-12 0 -19 7t-7 18q0 16 31 23q21 5 33 10q38 14 53.5 45.5t15.5 101.5v420q0 65 -17.5 96t-64.5 51q-11 5 -28 10q-31 9 -32 25zM21 1329 q0 38 26.5 64t63.5 26q28 0 55.5 -16t69.5 -60l283 -299h-89l-327 187q-46 26 -64 48.5t-18 49.5z" />
<glyph unicode="&#xed;" horiz-adv-x="651" d="M57 807q0 16 137 46.5t269 80.5v-729q0 -71 15 -102.5t53 -45.5q10 -3 30 -8q35 -7 35 -24q0 -14 -9.5 -19.5t-39.5 -5.5h-455q-12 0 -19 7t-7 18q0 16 31 23q21 5 33 10q38 14 53.5 45.5t15.5 101.5v420q0 65 -17.5 96t-64.5 51q-11 5 -28 10q-31 9 -32 25zM133 1044 l283 299q42 44 69.5 60t55.5 16q37 0 63.5 -26t26.5 -64q0 -28 -19 -51t-63 -47l-327 -187h-89z" />
<glyph unicode="&#xee;" horiz-adv-x="651" d="M57 807q0 16 137 46.5t269 80.5v-729q0 -71 15 -102.5t53 -45.5q10 -3 30 -8q35 -7 35 -24q0 -14 -9.5 -19.5t-39.5 -5.5h-455q-12 0 -19 7t-7 18q0 16 31 23q21 5 33 10q38 14 53.5 45.5t15.5 101.5v420q0 65 -17.5 96t-64.5 51q-11 5 -28 10q-31 9 -32 25zM21 1044 l231 359h148l231 -359h-78l-227 193l-227 -193h-78z" />
<glyph unicode="&#xef;" horiz-adv-x="651" d="M57 807q0 16 137 46.5t269 80.5v-729q0 -71 15 -102.5t53 -45.5q10 -3 30 -8q35 -7 35 -24q0 -14 -9.5 -19.5t-39.5 -5.5h-455q-12 0 -19 7t-7 18q0 16 31 23q21 5 33 10q38 14 53.5 45.5t15.5 101.5v420q0 65 -17.5 96t-64.5 51q-11 5 -28 10q-31 9 -32 25zM21 1214 q0 48 36.5 83.5t84.5 35.5t83 -35t35 -84q0 -51 -33.5 -85.5t-84.5 -34.5t-86 35t-35 85zM389 1214q0 48 36.5 83.5t84.5 35.5q49 0 84 -35t35 -84q0 -51 -34 -85.5t-85 -34.5q-49 0 -85 35t-36 85z" />
<glyph unicode="&#xf0;" horiz-adv-x="1149" d="M96 461q0 203 143 336t363 133q41 0 77 -10.5t71 -32.5q-34 76 -89.5 159.5t-136.5 178.5l-297 -181l-28 46l288 176q-63 72 -142 140t-79 83q0 9 6 13.5t17 4.5q32 0 268 -189l4 -3l309 186l27 -45l-289 -178q238 -198 354.5 -395t116.5 -402q0 -121 -37.5 -208.5 t-119.5 -157.5q-78 -67 -169 -102.5t-186 -35.5q-206 0 -338.5 136.5t-132.5 347.5zM348 453q0 -222 56 -331.5t169 -109.5q115 0 171.5 109.5t56.5 331.5t-56.5 332t-171.5 110q-113 0 -169 -110t-56 -332z" />
<glyph unicode="&#xf1;" horiz-adv-x="1214" d="M43 801q0 15 133.5 47t261.5 80v-152q110 83 197 120.5t170 37.5q119 0 177 -68.5t58 -208.5v-452q0 -71 15 -102.5t52 -44.5q11 -4 30 -9q34 -7 34 -24q0 -14 -9.5 -19.5t-39.5 -5.5h-442q-12 0 -19.5 7t-7.5 18q1 16 32 23q19 4 31 9q40 15 55 46.5t15 101.5v448 q0 83 -33.5 124.5t-101.5 41.5q-48 0 -104 -25.5t-109 -72.5v-516q0 -71 15 -102.5t53 -45.5q10 -3 30 -8q35 -7 35 -24q0 -14 -9.5 -19.5t-39.5 -5.5h-444q-12 0 -19.5 7t-7.5 18q1 16 32 23q19 4 31 9q39 15 54.5 46.5t15.5 101.5v413q0 66 -17 97t-65 51q-9 4 -28 10 q-31 10 -31 25zM303 1083q22 121 74.5 179.5t138.5 58.5q15 0 33 -2.5t36 -7.5l115 -31q12 -4 25 -6t26 -2q36 0 58 21t37 69h67q-23 -118 -76 -176t-137 -58q-14 0 -30.5 2.5t-39.5 8.5l-110 28q-14 5 -29 7t-33 2q-33 0 -55 -23t-35 -70h-65z" />
<glyph unicode="&#xf2;" horiz-adv-x="1149" d="M70 453q0 211 140.5 346t362.5 135q223 0 364.5 -135.5t141.5 -345.5q0 -211 -141.5 -346.5t-364.5 -135.5q-222 0 -362.5 134.5t-140.5 347.5zM348 453q0 -223 55.5 -332t169.5 -109q115 0 171.5 109.5t56.5 331.5q0 221 -57 331.5t-171 110.5q-113 0 -169 -109.5 t-56 -332.5zM270 1329q0 38 26.5 64t63.5 26q28 0 55.5 -16t69.5 -60l283 -299h-89l-327 187q-46 26 -64 48.5t-18 49.5z" />
<glyph unicode="&#xf3;" horiz-adv-x="1149" d="M70 453q0 211 140.5 346t362.5 135q223 0 364.5 -135.5t141.5 -345.5q0 -211 -141.5 -346.5t-364.5 -135.5q-222 0 -362.5 134.5t-140.5 347.5zM348 453q0 -223 55.5 -332t169.5 -109q115 0 171.5 109.5t56.5 331.5q0 221 -57 331.5t-171 110.5q-113 0 -169 -109.5 t-56 -332.5zM382 1044l283 299q42 44 69.5 60t55.5 16q37 0 63.5 -26t26.5 -64q0 -28 -19 -51t-63 -47l-327 -187h-89z" />
<glyph unicode="&#xf4;" horiz-adv-x="1149" d="M70 453q0 211 140.5 346t362.5 135q223 0 364.5 -135.5t141.5 -345.5q0 -211 -141.5 -346.5t-364.5 -135.5q-222 0 -362.5 134.5t-140.5 347.5zM348 453q0 -223 55.5 -332t169.5 -109q115 0 171.5 109.5t56.5 331.5q0 221 -57 331.5t-171 110.5q-113 0 -169 -109.5 t-56 -332.5zM270 1044l231 359h148l231 -359h-78l-227 193l-227 -193h-78z" />
<glyph unicode="&#xf5;" horiz-adv-x="1149" d="M70 453q0 211 140.5 346t362.5 135q223 0 364.5 -135.5t141.5 -345.5q0 -211 -141.5 -346.5t-364.5 -135.5q-222 0 -362.5 134.5t-140.5 347.5zM348 453q0 -223 55.5 -332t169.5 -109q115 0 171.5 109.5t56.5 331.5q0 221 -57 331.5t-171 110.5q-113 0 -169 -109.5 t-56 -332.5zM270 1083q22 121 74.5 179.5t138.5 58.5q15 0 33 -2.5t36 -7.5l115 -31q12 -4 25 -6t26 -2q36 0 58 21t37 69h67q-23 -118 -76 -176t-137 -58q-14 0 -30.5 2.5t-39.5 8.5l-110 28q-14 5 -29 7t-33 2q-33 0 -55 -23t-35 -70h-65z" />
<glyph unicode="&#xf6;" horiz-adv-x="1149" d="M70 453q0 211 140.5 346t362.5 135q223 0 364.5 -135.5t141.5 -345.5q0 -211 -141.5 -346.5t-364.5 -135.5q-222 0 -362.5 134.5t-140.5 347.5zM348 453q0 -223 55.5 -332t169.5 -109q115 0 171.5 109.5t56.5 331.5q0 221 -57 331.5t-171 110.5q-113 0 -169 -109.5 t-56 -332.5zM270 1214q0 48 36.5 83.5t84.5 35.5t83 -35t35 -84q0 -51 -33.5 -85.5t-84.5 -34.5t-86 35t-35 85zM638 1214q0 48 36.5 83.5t84.5 35.5q49 0 84 -35t35 -84q0 -51 -34 -85.5t-85 -34.5q-49 0 -85 35t-36 85z" />
<glyph unicode="&#xf7;" horiz-adv-x="1706" d="M254 528v166h1198v-166h-1198zM717 229q0 57 40.5 97.5t96.5 40.5q57 0 97 -40.5t40 -97.5q0 -56 -39.5 -95.5t-97.5 -39.5t-97.5 39t-39.5 96zM717 989q0 57 40.5 98t96.5 41q57 0 97 -41t40 -98q0 -56 -39.5 -95.5t-97.5 -39.5t-97.5 39t-39.5 96z" />
<glyph unicode="&#xf8;" horiz-adv-x="1149" d="M70 453q0 209 140 345t357 136q46 0 87 -5t81 -16l66 154h67l-75 -174q142 -70 214 -180.5t72 -259.5q0 -210 -140.5 -346t-358.5 -136q-43 0 -84.5 6t-83.5 17l-70 -166h-66l78 186q-137 63 -210.5 176t-73.5 263zM348 473q0 -109 14.5 -188t45.5 -146l294 697 q-28 29 -60.5 44t-70.5 15q-109 0 -166 -108t-57 -314zM446 70q26 -29 58.5 -43.5t73.5 -14.5q108 0 164.5 106t56.5 310q0 115 -14.5 199.5t-43.5 140.5z" />
<glyph unicode="&#xf9;" horiz-adv-x="1210" d="M35 807q0 16 132.5 47.5t260.5 79.5v-680q0 -88 32 -129t101 -41q48 0 104 26.5t111 75.5v439q0 65 -17 96t-65 51q-9 4 -28 10q-31 10 -31 25q0 16 133.5 47.5t261.5 79.5v-645q0 -84 13 -116t47 -50q17 -9 51 -16.5t35 -24.5q0 -15 -139 -30.5t-261 -67.5v145 q-105 -81 -193 -119.5t-169 -38.5q-122 0 -181 68t-59 209v377q0 65 -17 96t-65 51q-9 4 -27 10q-30 9 -30 25zM301 1329q0 38 26.5 64t63.5 26q28 0 55.5 -16t69.5 -60l283 -299h-89l-327 187q-46 26 -64 48.5t-18 49.5z" />
<glyph unicode="&#xfa;" horiz-adv-x="1210" d="M35 807q0 16 132.5 47.5t260.5 79.5v-680q0 -88 32 -129t101 -41q48 0 104 26.5t111 75.5v439q0 65 -17 96t-65 51q-9 4 -28 10q-31 10 -31 25q0 16 133.5 47.5t261.5 79.5v-645q0 -84 13 -116t47 -50q17 -9 51 -16.5t35 -24.5q0 -15 -139 -30.5t-261 -67.5v145 q-105 -81 -193 -119.5t-169 -38.5q-122 0 -181 68t-59 209v377q0 65 -17 96t-65 51q-9 4 -27 10q-30 9 -30 25zM413 1044l283 299q42 44 69.5 60t55.5 16q37 0 63.5 -26t26.5 -64q0 -28 -19 -51t-63 -47l-327 -187h-89z" />
<glyph unicode="&#xfb;" horiz-adv-x="1210" d="M35 807q0 16 132.5 47.5t260.5 79.5v-680q0 -88 32 -129t101 -41q48 0 104 26.5t111 75.5v439q0 65 -17 96t-65 51q-9 4 -28 10q-31 10 -31 25q0 16 133.5 47.5t261.5 79.5v-645q0 -84 13 -116t47 -50q17 -9 51 -16.5t35 -24.5q0 -15 -139 -30.5t-261 -67.5v145 q-105 -81 -193 -119.5t-169 -38.5q-122 0 -181 68t-59 209v377q0 65 -17 96t-65 51q-9 4 -27 10q-30 9 -30 25zM301 1044l231 359h148l231 -359h-78l-227 193l-227 -193h-78z" />
<glyph unicode="&#xfc;" horiz-adv-x="1210" d="M35 807q0 16 132.5 47.5t260.5 79.5v-680q0 -88 32 -129t101 -41q48 0 104 26.5t111 75.5v439q0 65 -17 96t-65 51q-9 4 -28 10q-31 10 -31 25q0 16 133.5 47.5t261.5 79.5v-645q0 -84 13 -116t47 -50q17 -9 51 -16.5t35 -24.5q0 -15 -139 -30.5t-261 -67.5v145 q-105 -81 -193 -119.5t-169 -38.5q-122 0 -181 68t-59 209v377q0 65 -17 96t-65 51q-9 4 -27 10q-30 9 -30 25zM301 1214q0 48 36.5 83.5t84.5 35.5t83 -35t35 -84q0 -51 -33.5 -85.5t-84.5 -34.5t-86 35t-35 85zM669 1214q0 48 36.5 83.5t84.5 35.5q49 0 84 -35t35 -84 q0 -51 -34 -85.5t-85 -34.5q-49 0 -85 35t-36 85z" />
<glyph unicode="&#xfd;" horiz-adv-x="942" d="M-51 885q0 10 7.5 15t23.5 5h18h393q29 0 38 -5t9 -17q0 -15 -43 -29t-43 -51q0 -9 3.5 -20.5t11.5 -28.5l215 -500l141 324q16 35 25.5 73.5t9.5 65.5q0 87 -67.5 124t-67.5 42q0 12 9 17t38 5h297q29 0 37.5 -4t9.5 -16q0 -17 -33 -30q-17 -6 -26 -11 q-45 -22 -89.5 -84.5t-91.5 -167.5l-375 -846q-37 -84 -97 -132t-128 -48q-63 0 -107 42.5t-44 102.5q0 53 34 89t84 36q55 0 97 -69.5t65 -69.5q15 0 30.5 16t28.5 45l95 213l-346 752q-44 93 -103 124.5t-59 37.5zM278 1044l283 299q42 44 69.5 60t55.5 16q37 0 63.5 -26 t26.5 -64q0 -28 -19 -51t-63 -47l-327 -187h-89z" />
<glyph unicode="&#xfe;" horiz-adv-x="1171" d="M25 1380q0 16 133.5 47.5t261.5 79.5v-719q96 77 174 111.5t154 34.5q151 0 247.5 -115.5t96.5 -298.5q0 -239 -147 -389.5t-380 -150.5q-35 0 -71 5t-74 15v-213q0 -69 15.5 -101.5t51.5 -43.5q14 -5 36 -9q38 -8 38 -26q0 -11 -7.5 -18t-21.5 -7h-20h-453q-12 0 -19 7 t-7 18q0 16 31 23q21 5 33 10q39 16 54 47t15 100v1411q0 66 -17 97t-66 51q-9 4 -26 9q-32 10 -32 25zM420 291q0 -140 40 -204t126 -64q111 0 178 108t67 293q0 169 -69 277t-172 108q-44 0 -85.5 -19t-84.5 -59v-440z" />
<glyph unicode="&#xff;" horiz-adv-x="942" d="M-51 885q0 10 7.5 15t23.5 5h18h393q29 0 38 -5t9 -17q0 -15 -43 -29t-43 -51q0 -9 3.5 -20.5t11.5 -28.5l215 -500l141 324q16 35 25.5 73.5t9.5 65.5q0 87 -67.5 124t-67.5 42q0 12 9 17t38 5h297q29 0 37.5 -4t9.5 -16q0 -17 -33 -30q-17 -6 -26 -11 q-45 -22 -89.5 -84.5t-91.5 -167.5l-375 -846q-37 -84 -97 -132t-128 -48q-63 0 -107 42.5t-44 102.5q0 53 34 89t84 36q55 0 97 -69.5t65 -69.5q15 0 30.5 16t28.5 45l95 213l-346 752q-44 93 -103 124.5t-59 37.5zM166 1214q0 48 36.5 83.5t84.5 35.5t83 -35t35 -84 q0 -51 -33.5 -85.5t-84.5 -34.5t-86 35t-35 85zM534 1214q0 48 36.5 83.5t84.5 35.5q49 0 84 -35t35 -84q0 -51 -34 -85.5t-85 -34.5q-49 0 -85 35t-36 85z" />
<glyph unicode="&#x131;" horiz-adv-x="651" d="M57 807q0 16 137 46.5t269 80.5v-729q0 -71 15 -102.5t53 -45.5q10 -3 30 -8q35 -7 35 -24q0 -14 -9.5 -19.5t-39.5 -5.5h-455q-12 0 -19 7t-7 18q0 16 31 23q21 5 33 10q38 14 53.5 45.5t15.5 101.5v420q0 65 -17.5 96t-64.5 51q-11 5 -28 10q-31 9 -32 25z" />
<glyph unicode="&#x152;" horiz-adv-x="2302" d="M76 690q0 342 190.5 529.5t536.5 187.5q64 0 206.5 -13.5t223.5 -13.5h825l140 -442q0 -2 1 -4l1 -2q0 -9 -6.5 -16t-14.5 -7q-15 0 -56 83t-95 147q-86 102 -203 149t-285 47h-59v-581h30q93 0 167.5 43.5t107.5 117.5q17 39 26 96.5t25 57.5q11 0 16.5 -6t6.5 -19v-649 q0 -13 -6.5 -21.5t-16.5 -8.5q-19 0 -28 58.5t-25 98.5q-37 88 -111 137.5t-168 49.5h-24v-482q0 -114 34 -148t123 -34q158 0 289 80t213 225q27 49 50.5 121t41.5 72q10 0 15.5 -6t5.5 -15v-6l-113 -516h-907q-80 0 -225 -13.5t-211 -13.5q-341 0 -531 189t-190 528z M397 690q0 -349 104.5 -511.5t327.5 -162.5q186 0 276.5 106t90.5 322v488q0 220 -90 326t-277 106q-223 0 -327.5 -162t-104.5 -512z" />
<glyph unicode="&#x153;" horiz-adv-x="1733" d="M70 453q0 209 140 345t357 136q109 0 202 -34.5t157 -98.5q68 65 149 98t174 33q176 0 287.5 -114t115.5 -300h-613q1 -177 77.5 -274t214.5 -97q170 0 274 148q20 29 27 29q8 -1 10 -3.5t3 -17.5q0 -21 -18 -66.5t-46 -84.5q-60 -87 -148 -134t-190 -47q-93 0 -175 35.5 t-144 102.5q-75 -69 -163 -103.5t-190 -34.5q-220 0 -360.5 135t-140.5 347zM348 453q0 -213 58.5 -327t166.5 -114q110 0 167 110.5t57 321.5q0 221 -57 336t-167 115t-167.5 -112.5t-57.5 -329.5zM1036 559h371q0 12 1 25l1 12q0 148 -42 223.5t-124 75.5 q-91 0 -146 -88.5t-61 -247.5z" />
<glyph unicode="&#x178;" horiz-adv-x="1249" d="M-49 1358q0 12 8 17t29 5h569q19 0 27 -5t8 -17q0 -18 -66.5 -34t-66.5 -69q0 -14 6 -37.5t16 -41.5l246 -467l227 368q22 33 32.5 65t10.5 60q0 44 -23 77t-61 44q-10 3 -30 7q-37 8 -37 28q0 12 8 17t27 5h393q19 0 27 -5t8 -17q0 -18 -32 -26q-24 -6 -38 -13 q-50 -24 -113 -90.5t-120 -157.5l-250 -395v-432q0 -88 14.5 -122.5t51.5 -54.5q17 -8 56.5 -15.5t39.5 -26.5q0 -14 -8.5 -19.5t-35.5 -5.5h-509q-27 0 -35 5.5t-8 19.5q0 19 39 26.5t56 15.5q37 19 51.5 53.5t14.5 123.5v364l-309 547q-38 67 -72.5 106t-68.5 56 q-15 6 -42 12q-40 8 -40 29zM320 1687q0 48 36.5 83.5t84.5 35.5t83 -35t35 -84q0 -51 -33.5 -85.5t-84.5 -34.5t-86 35t-35 85zM688 1687q0 48 36.5 83.5t84.5 35.5q49 0 84 -35t35 -84q0 -51 -34 -85.5t-85 -34.5q-49 0 -85 35t-36 85z" />
<glyph unicode="&#x2c6;" horiz-adv-x="1024" d="M207 1044l231 359h148l231 -359h-78l-227 193l-227 -193h-78z" />
<glyph unicode="&#x2dc;" horiz-adv-x="1024" d="M207 1083q22 121 74.5 179.5t138.5 58.5q15 0 33 -2.5t36 -7.5l115 -31q12 -4 25 -6t26 -2q36 0 58 21t37 69h67q-23 -118 -76 -176t-137 -58q-14 0 -30.5 2.5t-39.5 8.5l-110 28q-14 5 -29 7t-33 2q-33 0 -55 -23t-35 -70h-65z" />
<glyph unicode="&#x2013;" horiz-adv-x="1024" d="M0 379v162h1024v-162h-1024z" />
<glyph unicode="&#x2014;" horiz-adv-x="2048" d="M0 379v162h2048v-162h-2048z" />
<glyph unicode="&#x2018;" horiz-adv-x="604" d="M119 985q0 70 27 143.5t79 143.5q42 56 91 95.5t73 39.5q9 0 14.5 -4.5t6.5 -13.5q0 -8 -23.5 -24t-34.5 -26q-54 -45 -85 -101t-31 -105q0 -41 17 -60t79 -37q70 -22 99.5 -53t29.5 -82q0 -57 -45 -100t-107 -43q-81 0 -135.5 65t-54.5 162z" />
<glyph unicode="&#x2019;" horiz-adv-x="604" d="M143 1264q0 59 45.5 101t112.5 42q76 0 130 -66t54 -161q0 -68 -28 -143t-82 -148q-40 -53 -89 -92t-69 -39q-9 0 -14.5 5t-5.5 13t18 21q14 10 21 16q61 51 96 108t35 105q0 39 -15.5 58.5t-72.5 41.5q-80 30 -108 60t-28 78z" />
<glyph unicode="&#x201a;" horiz-adv-x="604" d="M143 145q0 59 45.5 101.5t112.5 42.5q76 0 130 -66t54 -162q0 -68 -28 -142.5t-82 -147.5q-40 -54 -89 -92.5t-69 -38.5q-9 0 -14.5 5t-5.5 13q0 10 26 28q9 7 15 11q59 47 94 105t35 106q0 37 -14.5 56.5t-73.5 43.5q-83 32 -109.5 61.5t-26.5 75.5z" />
<glyph unicode="&#x201c;" horiz-adv-x="1085" d="M119 985q0 70 27 143.5t79 143.5q42 56 91 95.5t73 39.5q9 0 14.5 -4.5t6.5 -13.5q0 -8 -23.5 -24t-34.5 -26q-54 -45 -85 -101t-31 -105q0 -41 17 -60t79 -37q70 -22 99.5 -53t29.5 -82q0 -57 -45 -100t-107 -43q-81 0 -135.5 65t-54.5 162zM600 987q0 68 27 140t80 145 q41 56 90 95.5t73 39.5q10 0 14.5 -4.5t4.5 -13.5q0 -8 -26 -27q-19 -14 -29 -23q-53 -44 -85 -101t-32 -105q0 -67 93 -96l4 -1q71 -23 99.5 -54t28.5 -81q0 -58 -44.5 -100.5t-106.5 -42.5q-82 0 -136.5 65.5t-54.5 163.5z" />
<glyph unicode="&#x201d;" horiz-adv-x="1085" d="M143 1264q0 59 45.5 101t112.5 42q76 0 130 -66t54 -161q0 -68 -28 -143t-82 -148q-40 -53 -89 -92t-69 -39q-9 0 -14.5 5t-5.5 13t18 21q14 10 21 16q61 51 96 108t35 105q0 39 -15.5 58.5t-72.5 41.5q-80 30 -108 60t-28 78zM625 1264q0 59 45 101t112 42 q76 0 130.5 -66t54.5 -161q0 -69 -28.5 -143t-82.5 -148q-39 -53 -88.5 -92t-69.5 -39q-9 0 -14.5 5.5t-5.5 12.5q0 9 19 22q12 8 18 13q61 50 97 109t36 108q0 38 -15.5 58t-74.5 42q-81 31 -107 60t-26 76z" />
<glyph unicode="&#x201e;" horiz-adv-x="1085" d="M143 145q0 59 45.5 101.5t112.5 42.5q76 0 130 -66t54 -162q0 -68 -28 -142.5t-82 -147.5q-40 -54 -89 -92.5t-69 -38.5q-9 0 -14.5 5t-5.5 13q0 10 26 28q9 7 15 11q59 47 94 105t35 106q0 37 -14.5 56.5t-73.5 43.5q-83 32 -109.5 61.5t-26.5 75.5zM625 145 q0 60 45 102t112 42q76 0 130.5 -66t54.5 -162q0 -68 -28.5 -142.5t-82.5 -147.5q-39 -54 -88.5 -92.5t-69.5 -38.5q-9 0 -14.5 5t-5.5 13q0 7 20 21q13 9 19 14q60 48 95.5 107t35.5 108q0 38 -16.5 58.5t-73.5 43.5q-81 31 -107 60.5t-26 74.5z" />
<glyph unicode="&#x2022;" d="M307 762q0 123 87 209t210 86q122 0 208.5 -86.5t86.5 -208.5t-87.5 -209.5t-209.5 -87.5q-123 0 -209 87t-86 210z" />
<glyph unicode="&#x2026;" horiz-adv-x="2048" d="M182 131q0 65 46.5 111.5t111.5 46.5q66 0 113 -46t47 -112t-47.5 -113t-112.5 -47q-63 0 -110.5 48.5t-47.5 111.5zM864 131q0 65 46.5 111.5t111.5 46.5q66 0 113 -46t47 -112t-47.5 -113t-112.5 -47q-63 0 -110.5 48.5t-47.5 111.5zM1548 131q0 65 46.5 111.5 t111.5 46.5q66 0 113 -46t47 -112t-47.5 -113t-112.5 -47q-63 0 -110.5 48.5t-47.5 111.5z" />
<glyph unicode="&#x2039;" horiz-adv-x="590" d="M90 461q0 6 3.5 12.5t10.5 13.5l351 342q2 3 7.5 5.5t10.5 3.5q8 0 14.5 -6t6.5 -13q0 -4 -1.5 -8t-3.5 -8l-194 -344l197 -345q3 -6 4.5 -10.5t1.5 -7.5q-1 -11 -6 -16.5t-15 -5.5q-5 0 -9 1.5t-7 4.5l-359 358q-5 7 -8.5 13.5t-3.5 9.5z" />
<glyph unicode="&#x203a;" horiz-adv-x="590" d="M92 815q0 9 5.5 15.5t15.5 7.5q4 0 8.5 -2t7.5 -5l356 -360q8 -7 11.5 -12t3.5 -8q0 -7 -3.5 -13.5t-11.5 -13.5l-350 -342q-7 -5 -11 -6.5t-7 -1.5q-9 0 -15 5.5t-6 12.5q0 4 2 9q2 4 2 5l195 345l-197 344q-2 3 -4 9.5t-2 10.5z" />
<glyph unicode="&#x2122;" horiz-adv-x="1683" d="M233 1260l11 188h448l10 -188h-30q-8 80 -40 116.5t-93 36.5h-11v-422q0 -23 10.5 -37t28.5 -16l31 -4v-29h-260v29l32 4q19 2 28.5 15.5t9.5 37.5v422h-15q-59 0 -91 -37.5t-40 -115.5h-29zM770 905v29l33 4q20 2 30.5 15t10.5 36v373q0 23 -11 37t-30 16l-33 2v31h199 l135 -381l137 381h189v-27l-28 -2q-19 -3 -29.5 -16.5t-10.5 -36.5v-375q0 -23 10.5 -36.5t30.5 -16.5l27 -4v-29h-246v29l30 4q20 2 29.5 15.5t9.5 37.5v375l-163 -463h-27l-170 469v-381q0 -24 10 -38t29 -15l35 -4v-29h-197z" />
<glyph unicode="&#xe000;" horiz-adv-x="905" d="M0 905h905v-905h-905v905z" />
<glyph unicode="&#xfb01;" horiz-adv-x="1343" d="M749 807q0 16 137 46.5t269 80.5v-729q0 -71 15 -102.5t53 -45.5q10 -3 30 -8q35 -7 35 -24q0 -14 -9.5 -19.5t-39.5 -5.5h-455q-12 0 -19 7t-7 18q0 16 31 23q21 5 33 10q38 14 53.5 45.5t15.5 101.5v420q0 65 -17.5 96t-64.5 51q-11 5 -28 10q-31 9 -32 25zM864 1221 q0 61 44 106t106 45t106.5 -44.5t44.5 -106.5q0 -61 -45.5 -105.5t-105.5 -44.5t-105 45t-45 105zM59 809q98 61 178 275q12 33 19 51q82 216 151 294t162 78q76 0 130.5 -55.5t54.5 -134.5q0 -61 -34.5 -101t-84.5 -40q-44 0 -70 39t-26 106q0 6 2 19t2 18q0 38 -13.5 58 t-37.5 20q-35 0 -64 -43.5t-29 -102.5q0 -64 31.5 -192t34.5 -192l201 -1l-37 -96h-162v-604q0 -70 15.5 -101.5t54.5 -46.5q10 -3 29 -8q34 -7 34 -24q0 -14 -9.5 -19.5t-39.5 -5.5h-455q-12 0 -19 7t-7 18q0 16 31 23q21 5 32 9q39 15 54.5 46.5t15.5 101.5v604h-144z" />
<glyph unicode="&#xfb02;" horiz-adv-x="1335" d="M739 1380q0 16 137 47t269 80v-1302q0 -70 15.5 -101.5t54.5 -46.5q9 -3 28 -8q35 -7 35 -24q0 -14 -9.5 -19.5t-39.5 -5.5h-455q-12 0 -19.5 7t-7.5 18q1 16 32 23q19 4 31 9q39 15 54.5 46.5t15.5 101.5v993q0 66 -17 97t-65 51q-10 4 -27 9q-32 10 -32 25zM59 809 q98 61 178 275q12 33 19 51q82 216 151 294t162 78q76 0 130.5 -55.5t54.5 -134.5q0 -61 -34.5 -101t-84.5 -40q-44 0 -70 39t-26 106q0 6 2 19t2 18q0 38 -13.5 58t-37.5 20q-35 0 -64 -43.5t-29 -102.5q0 -64 31.5 -192t34.5 -192l201 -1l-37 -96h-162v-604 q0 -70 15.5 -101.5t54.5 -46.5q10 -3 29 -8q34 -7 34 -24q0 -14 -9.5 -19.5t-39.5 -5.5h-455q-12 0 -19 7t-7 18q0 16 31 23q21 5 32 9q39 15 54.5 46.5t15.5 101.5v604h-144z" />
<glyph unicode="&#xfb03;" horiz-adv-x="2035" d="M1441 807q0 16 137 46.5t269 80.5v-729q0 -71 15 -102.5t53 -45.5q10 -3 30 -8q35 -7 35 -24q0 -14 -9.5 -19.5t-39.5 -5.5h-455q-12 0 -19 7t-7 18q0 16 31 23q21 5 33 10q38 14 53.5 45.5t15.5 101.5v420q0 65 -17.5 96t-64.5 51q-11 5 -28 10q-31 9 -32 25zM1556 1221 q0 61 44 106t106 45t106.5 -44.5t44.5 -106.5q0 -61 -45.5 -105.5t-105.5 -44.5t-105 45t-45 105zM751 809q98 61 178 275q12 33 19 51q82 216 151 294t162 78q76 0 130.5 -55.5t54.5 -134.5q0 -61 -34.5 -101t-84.5 -40q-44 0 -70 39t-26 106q0 6 2 19t2 18q0 38 -13.5 58 t-37.5 20q-35 0 -64 -43.5t-29 -102.5q0 -64 31.5 -192t34.5 -192l201 -1l-37 -96h-162v-604q0 -70 15.5 -101.5t54.5 -46.5q10 -3 29 -8q34 -7 34 -24q0 -14 -9.5 -19.5t-39.5 -5.5h-455q-12 0 -19 7t-7 18q0 16 31 23q21 5 32 9q39 15 54.5 46.5t15.5 101.5v604h-144z M59 809q98 61 178 275q12 33 19 51q82 216 151 294t162 78q76 0 130.5 -55.5t54.5 -134.5q0 -61 -34.5 -101t-84.5 -40q-44 0 -70 39t-26 106q0 6 2 19t2 18q0 38 -13.5 58t-37.5 20q-35 0 -64 -43.5t-29 -102.5q0 -64 31.5 -192t34.5 -192l201 -1l-37 -96h-162v-604 q0 -70 15.5 -101.5t54.5 -46.5q10 -3 29 -8q34 -7 34 -24q0 -14 -9.5 -19.5t-39.5 -5.5h-455q-12 0 -19 7t-7 18q0 16 31 23q21 5 32 9q39 15 54.5 46.5t15.5 101.5v604h-144z" />
<glyph unicode="&#xfb04;" horiz-adv-x="2027" d="M1431 1380q0 16 137 47t269 80v-1302q0 -70 15.5 -101.5t54.5 -46.5q9 -3 28 -8q35 -7 35 -24q0 -14 -9.5 -19.5t-39.5 -5.5h-455q-12 0 -19.5 7t-7.5 18q1 16 32 23q19 4 31 9q39 15 54.5 46.5t15.5 101.5v993q0 66 -17 97t-65 51q-10 4 -27 9q-32 10 -32 25zM751 809 q98 61 178 275q12 33 19 51q82 216 151 294t162 78q76 0 130.5 -55.5t54.5 -134.5q0 -61 -34.5 -101t-84.5 -40q-44 0 -70 39t-26 106q0 6 2 19t2 18q0 38 -13.5 58t-37.5 20q-35 0 -64 -43.5t-29 -102.5q0 -64 31.5 -192t34.5 -192l201 -1l-37 -96h-162v-604 q0 -70 15.5 -101.5t54.5 -46.5q10 -3 29 -8q34 -7 34 -24q0 -14 -9.5 -19.5t-39.5 -5.5h-455q-12 0 -19 7t-7 18q0 16 31 23q21 5 32 9q39 15 54.5 46.5t15.5 101.5v604h-144zM59 809q98 61 178 275q12 33 19 51q82 216 151 294t162 78q76 0 130.5 -55.5t54.5 -134.5 q0 -61 -34.5 -101t-84.5 -40q-44 0 -70 39t-26 106q0 6 2 19t2 18q0 38 -13.5 58t-37.5 20q-35 0 -64 -43.5t-29 -102.5q0 -64 31.5 -192t34.5 -192l201 -1l-37 -96h-162v-604q0 -70 15.5 -101.5t54.5 -46.5q10 -3 29 -8q34 -7 34 -24q0 -14 -9.5 -19.5t-39.5 -5.5h-455 q-12 0 -19 7t-7 18q0 16 31 23q21 5 32 9q39 15 54.5 46.5t15.5 101.5v604h-144z" />
</font>
</defs>
</svg>
